<?xml version="1.0" encoding="utf-8"?>
<!-- Generator: Adobe Illustrator 24.1.1, SVG Export Plug-In . SVG Version: 6.00 Build 0)  -->
<svg version="1.1" id="Layer_1" xmlns="http://www.w3.org/2000/svg" xmlns:xlink="http://www.w3.org/1999/xlink" x="0px" y="0px"
	 width="678.4px" height="680.9px" viewBox="0 0 678.4 680.9" style="enable-background:new 0 0 678.4 680.9;" xml:space="preserve"
	>
<style type="text/css">
	.st0{fill:#4FA0EC;}
</style>
<g>
	<path class="st0" d="M280.4,184.5c0.8,20.1-7.8,36.7-19.7,52c-9.9,12.6-21.4,23.7-32.5,35.2c-5.8,6-11.2,12.4-16.5,18.8
		c-20,24.4-17.5,53.9-3.4,78c6.6,11.2,16,20.1,23.7,30.4c18.2,23.9,20.8,56.1,6.4,81c-9.7,16.9-24.9,25.6-43.7,27.7
		c-40.3,4.7-72.3-11.1-97.8-41.4c-21.5-25.6-34.4-55.7-44.2-87.2c-10.3-33.5-16.3-67.8-19.1-102.7c-1.8-22.8-2.6-45.5,3.8-67.8
		C52.1,158,83.5,123.1,134.3,107c15.3-4.8,31-5.4,47-4.5c16.7,1,33.2,3.1,49,8.8c19.1,6.9,34.3,18.4,43,37.3
		C278,158.8,280.2,170.2,280.4,184.5z"/>
	<path class="st0" d="M646,424c-2,54-10.9,108.1-32.3,159.7c-10.8,26.1-24.9,50.2-46.3,69.3c-26.5,23.6-57.3,33-92.3,25.4
		c-23-4.9-39-23.4-43.2-46.7c-4.8-26.6,3.1-49,20.8-68.7c5.8-6.5,11.6-13.2,16.2-20.6c10.9-17.6,15-36.6,9.6-56.8
		c-3.5-13.3-12.2-23.8-21.4-33.7c-10.6-11.4-21.6-22.4-32-33.9c-11.7-12.9-22.4-26.7-25.6-44.3c-4.9-26.9-0.9-52,19-72.4
		c12-12.3,27.6-18.6,44.2-22c25.4-5.3,51.1-8,76.4-0.9c53.5,14.9,86.5,50.7,101.7,103.5C644.7,395,645.8,408.7,646,424z"/>
	<path class="st0" d="M328.2,47c-1.1,20.4-9.4,37.8-27.8,49.2c-22.6,14-48,5.6-58.4-19c-11-25.9,2.8-60.7,28.1-73.1
		c20-9.8,45.3-1.6,54.5,22.2c1.4,3.6,2.5,7.2,3,11C327.9,40.2,327.9,43.2,328.2,47z"/>
	<path class="st0" d="M388.3,172.1c16.4,0.4,27.9,7.3,36.8,18.5c13,16.2,17.9,34.6,12.2,54.9c-7.7,27.2-35.1,37.7-59.3,23.2
		c-25.6-15.4-35.6-50.7-21.2-76.1C364,179.8,375.1,172.9,388.3,172.1z"/>
	<path class="st0" d="M205.5,49.8c0.1,6.3-1.3,12.4-4.2,18c-8.4,15.9-25.5,17.4-36.5,3.1c-9-11.6-9.4-31-0.9-43.1
		c10.7-15.3,29.1-13.6,37.6,3.6C204.3,37.1,205.6,43.3,205.5,49.8z"/>
	<path class="st0" d="M472.8,220.1c0.2-9.2,3.1-19.2,12.1-26.3c7.9-6.3,17.8-5.6,25,1.4c13.4,13,13,39.5-0.7,52.3
		c-8.5,7.9-20.7,7.2-28.2-1.6C475.2,239,472.8,230.9,472.8,220.1z"/>
	<path class="st0" d="M585.9,229.9c-0.1,10.1-3.2,19.2-10.5,26.4c-5.8,5.8-12.6,9.3-21,6.5c-8.1-2.7-11.5-9.4-12.4-17.2
		c-1.6-13.2,2.3-24.7,12.6-33.4c5.7-4.8,12.4-8,19.9-4.7c8.1,3.5,10.5,10.9,11.3,19C586,227.6,585.9,228.7,585.9,229.9z"/>
	<path class="st0" d="M136,68.7c0.1,3.3-0.6,6.5-1.6,9.6c-4.6,13.5-17.9,17.5-28.6,8.1C94.3,76.3,89.9,63.1,93,48.1
		c2.9-13.8,15.9-18.5,27.4-10.5C131.2,45.2,135.3,56.1,136,68.7z"/>
	<path class="st0" d="M36.5,88.3c0-16.8,13.7-24.9,28.5-16.8c11.3,6.2,18.3,20,16.7,32.7c-1.5,12.2-11.6,18.6-23.4,14.9
		C46.1,115.3,36.6,101.9,36.5,88.3z"/>
	<path class="st0" d="M641.6,261c-0.1,12.5-8.1,24.8-19.1,29.2c-13.8,5.5-26.7-2.9-26.3-17.5c0.4-13.1,6.6-23.4,18.3-29.4
		C628.2,236.1,641.7,245.3,641.6,261z"/>
	<path class="st0" d="M636.6,320.8c0.1-13.4,11.8-26.3,25.2-27.7c8.5-0.9,16,5.7,16.6,14.5c0.8,13-9,26-21.9,29.1
		C645,339.4,636.5,332.6,636.6,320.8z"/>
	<path class="st0" d="M41.8,148.8c0,11.3-8.4,18-19.4,15.8C9.9,162-0.4,149,0,136.2c0.3-10.5,8.7-17,19-14.9
		C31.7,124,41.8,136.2,41.8,148.8z"/>
</g>
</svg>
