<?xml version="1.0" encoding="utf-8"?>
<!-- Generator: Adobe Illustrator 24.1.1, SVG Export Plug-In . SVG Version: 6.00 Build 0)  -->
<svg version="1.1" id="Layer_1" xmlns="http://www.w3.org/2000/svg" xmlns:xlink="http://www.w3.org/1999/xlink" x="0px" y="0px"
	 viewBox="0 0 754.7 518.9" style="enable-background:new 0 0 754.7 518.9;" xml:space="preserve">
<style type="text/css">
	.st0{fill:#FFFFFF;}
</style>
<g>
	<path class="st0" d="M272.4,170.9c10.1,17.4,10.2,36.1,6.9,55.2c-2.9,15.8-7.9,31-12.3,46.3c-2.3,8-4.1,16.2-5.8,24.3
		c-6.3,30.9,9.7,55.8,33.4,70.6c11.1,6.8,23.5,10.3,35.2,15.8c27.3,12.6,44.6,39.9,43.5,68.6c-0.7,19.5-10.1,34.3-25.7,44.9
		c-33.4,23-69.1,23.9-105.8,9.1c-31-12.6-56.4-33.2-79.8-56.5c-24.8-24.8-46.1-52.3-64.8-81.9c-12.2-19.3-23.5-39-28.3-61.7
		c-10.6-51.5,0.9-97,38.3-135c11.3-11.4,24.9-19.2,39.5-25.9c15.2-6.9,30.8-12.8,47.4-15.1c20.1-2.8,38.9,0.3,55.4,12.9
		C258.2,149.3,265.5,158.4,272.4,170.9z"/>
	<path class="st0" d="M707.5,212c23.4,48.7,40.8,100.7,46,156.3c2.6,28.1,1.4,56-8.6,82.9c-12.4,33.2-35.3,55.9-69.8,65.6
		c-22.6,6.4-45.4-2.5-60-21.1c-16.7-21.3-20.1-44.8-13.7-70.5c2.1-8.5,4.1-17.1,4.7-25.8c1.4-20.7-3.8-39.4-18-54.7
		c-9.3-10.1-21.9-15.3-34.7-19.8c-14.7-5.1-29.6-9.7-44.1-15c-16.4-5.9-32.3-13.2-43.3-27.2c-16.9-21.5-25.1-45.6-17-72.9
		c4.9-16.5,15.7-29.3,28.8-40.1c20-16.5,41.5-30.9,67.1-36.5c54.3-11.8,100.2,4.4,138.3,44C692.8,187,700.2,198.6,707.5,212z"/>
	<path class="st0" d="M250.4,27c8.6,18.6,9.3,37.8-1.6,56.5c-13.4,22.9-39.8,27.4-60.5,10.5c-21.8-17.8-25.9-55-9.3-77.8
		c13.1-18,39.3-22.6,58.6-5.8c2.9,2.5,5.6,5.2,7.8,8.3C247,21.2,248.4,23.8,250.4,27z"/>
	<path class="st0" d="M362,109.6c14.7-7.3,28.1-6.6,41.2-0.8c19.1,8.3,32,22.2,36.4,42.9c5.9,27.6-13.4,49.7-41.6,48.2
		c-29.8-1.7-55.2-28.2-54.3-57.4C344.1,127.8,350.7,116.5,362,109.6z"/>
	<path class="st0" d="M143.2,86.8c3,5.5,4.6,11.6,4.7,17.9c0,18-14.4,27.3-30.8,19.8c-13.4-6.1-22.8-23-20.9-37.7
		c2.3-18.5,19.4-25.6,34.9-14.4C136.2,76.1,140.3,81,143.2,86.8z"/>
	<path class="st0" d="M459.1,112.6c-4.1-8.2-6.2-18.4-1.6-28.9c4-9.3,13.1-13.3,22.8-10.4c17.9,5.2,29.9,28.9,23.8,46.6
		c-3.8,11-14.9,16-25.7,11.8C470.1,128.2,464.2,122.1,459.1,112.6z"/>
	<path class="st0" d="M563.7,68.4c4.6,9,6.1,18.5,3,28.2c-2.4,7.8-6.8,14.1-15.5,15.6c-8.4,1.4-14.6-2.9-19-9.4
		c-7.6-10.9-9.5-22.9-4.5-35.4c2.8-6.9,7.2-12.9,15.4-13.4c8.8-0.7,14.4,4.7,18.9,11.5C562.7,66.4,563.1,67.4,563.7,68.4z"/>
	<path class="st0" d="M90.6,136c1.6,2.9,2.5,6,3.1,9.2c2.2,14.1-7.7,23.8-21.5,20.5c-14.9-3.6-24.9-13.2-29.2-27.9
		c-3.9-13.6,5.4-23.8,19.3-22.1C75.4,117.4,84.1,125.2,90.6,136z"/>
	<path class="st0" d="M11.8,199.8c-7.8-14.9,0.5-28.4,17.4-28.2c12.9,0.2,25.5,9.1,30,21.1c4.4,11.5-1.6,21.9-13.7,24.1
		C32.9,219.2,18.2,211.7,11.8,199.8z"/>
	<path class="st0" d="M627.5,69.9c5.7,11.1,4.4,25.7-3.3,34.7c-9.6,11.3-25,9.9-31.4-3.2c-5.8-11.8-5.1-23.8,2.5-34.5
		C604,54.2,620.2,56,627.5,69.9z"/>
	<path class="st0" d="M651,125.2c-6.2-11.9-1.8-28.8,9.4-36.3c7.1-4.8,16.8-2.4,21.4,5.1c6.8,11.1,4.2,27.2-5.8,36
		C667.1,137.7,656.4,135.6,651,125.2z"/>
	<path class="st0" d="M44.7,250.8c5.3,10,1,19.8-9.8,23c-12.3,3.5-27.4-3.1-33.1-14.7c-4.6-9.4-0.2-19.1,9.8-22
		C24.2,233.6,38.8,239.6,44.7,250.8z"/>
</g>
</svg>
