<svg id="Layer_1" data-name="Layer 1" xmlns="http://www.w3.org/2000/svg" viewBox="0 0 217.26 122.74"><defs><style>.cls-1{fill:#fff;}</style></defs><g id="bath"><path class="cls-1" d="M21.74,34.85c-6.86,2.52-9.33,7.52-8.76,14.61H0v62.43c0,9,1.86,10.85,10.81,10.85l196.38-.13c7.52,0,10.09-2.5,10.07-10,0-12.74-.23-25.48-.31-38.22,0-8.38,0-16.77,0-25.06H201.48V61.77c-6.34-1.38-12.26-2.34-18-4a155.74,155.74,0,0,0-84.86-.51c-15.29,4.14-30.82,2.26-46.37,2.23,1.85-11.67.61-14-10.11-18.89-4.94-2.25-10-4.3-14.13-6.09A14.74,14.74,0,0,0,21.74,34.85Zm-5.85,72.74V58c2,2.08,3.7,3.15,4.39,4.66C25.51,74,30.49,85.52,35.68,96.92c1.59,3.49,3.6,6.8,5.67,10.67Zm91.65-.09H60.75c-.14-.34-.27-.68-.41-1,4-1.58,8.18-2.68,11.8-4.82,9.93-5.86,19.25-5.31,28.53,1.34,2.16,1.55,4.76,2.5,7.16,3.72C107.74,107,107.64,107.24,107.54,107.5Zm94.08-.06H130.39c2.2-9.07-4.31-11.53-10.59-14.48-9-4.2-17.84-8.67-26.66-13.19-3.82-2-7.22-2.82-10,1.52a8,8,0,0,1-.45.73c-1.81.72-3.73,2.26-5.41,2-9.88-1.32-19.71-3-29.53-4.74-1-.18-1.91-1.35-2.86-2.06,9.29,1.58,18.57,3.29,27.9,4.66,3.23.48,6.59.1,9.9.11a8,8,0,0,0,.45-.73c2.37-8.06.81-10.44-7.53-11.57-5.91-.81-11.81-1.72-17.74-2.47S48.05,63.55,46,58c8.59,7.56,10.67,8.45,19.38,7.95l-5.59-4.09c18.63,1.7,35.49-1,52.3-5,23.74-5.59,47.23-3.06,70.52,3.11,6.13,1.62,12.37,2.84,19,4.34Z"/><path class="cls-1" d="M14.25,4.2C11.31.6,8.08-1.26,4.49,1A10.39,10.39,0,0,0,.07,7.52c-.63,4.8,3.18,6.74,7.08,7.93A15.87,15.87,0,1,0,14.25,4.2Z"/></g></svg>