<svg xmlns="http://www.w3.org/2000/svg" viewBox="0 0 230.53 128.83"><defs><style>.cls-1{fill:#da291c;}</style></defs><g id="Layer_1" data-name="Layer 1"><g id="bed"><path class="cls-1" d="M0,0,19.19,0c0,15,.19,29.65,0,44.31-.06,4.15,1.13,6.16,5,8.34a71.32,71.32,0,0,1,27,25.93c11.58,2.15,24.17,4.7,36.84,6.69,2.66.42,7.4-.38,8.16-2,2.54-5.47,6.75-4.68,11.07-4.62,1.15,0,2.31,0,3.46,0L111,77.2,74.24,67.55C76,64.37,77.87,61,79.77,57.66c2.34-4.12,1.32-7.49-2.44-10-4.17-2.77-7.47-.88-9.88,2.66S63,57.79,60.54,62c-2.89-7.56-1.07-13.16,4.95-16.31C70.62,43,75.72,40.17,81.05,38s10.26-2.18,13.58,3.62c1.77,3.09,4,2.57,6.75,1.15a43.2,43.2,0,0,1,11.26-4.38c14.4-2.74,21.67,2.34,25.48,17.89,5.88-3.09,11.69-5.91,17.26-9.15,4-2.3,7.44-2.23,11.42,0,10,5.5,20.18,10.66,30.23,16,7.93,4.25,8.78,6.33,6.29,15.08l9.62,0,0-13.46h17.52l.09,63.82-17.15,0,0-24.07-194.11.27,0,24.11-19.09,0ZM134.55,77.36c.08.29.15.59.23.88l52.73-.08a254.55,254.55,0,0,0-24.72-13.94c-1.08-.55-3-.14-4.25.48C150.49,68.82,142.54,73.12,134.55,77.36Z"/><path class="cls-1" d="M70.8,69.7c6.81,1.2,13,2.42,19.26,3.34,3.68.55,6.46,1.75,6.14,6-.33,4.58-3.66,5-7.16,4.47-9.13-1.44-18.26-2.93-27.33-4.7-4.24-.82-6-3.8-3.9-7.77A192,192,0,0,1,69.2,51.6c1.13-1.64,3.2-5,7.24-2.26s2.29,5.2,1.57,7.1C76.35,60.88,73.53,64.87,70.8,69.7Z"/><path class="cls-1" d="M39.29,31.26c-4.64.27-8,1.78-8.37,6a10.4,10.4,0,0,0,2.72,7.44C37.14,48,41,46.07,44.21,43.62a15.87,15.87,0,1,0-4.92-12.36Z"/></g></g></svg>