<svg xmlns="http://www.w3.org/2000/svg" viewBox="0 0 447.07 447.04"><defs><style>.cls-1{fill:#fff;}</style></defs><g id="Layer_1" data-name="Layer 1"><path class="cls-1" d="M.19,335.54H223V447H.19Zm47.18,95.64V351.81H32.13v79.37Z"/><path class="cls-1" d="M223.15,200.92v86.27H.29a85.13,85.13,0,0,1,10.25-35.45c18.66-34,47.65-51.51,86.37-52,36.09-.44,72.2-.14,108.3,0C211.13,199.75,217.05,200.49,223.15,200.92ZM47.46,271.37c2.29-23.76,14.43-35.91,39.88-40.23V216c-32.8-.87-57.29,29.54-55,55.4Zm136-15.81a8,8,0,1,0-8-7.85A8,8,0,0,0,183.45,255.56Z"/><path class="cls-1" d="M127.88.23h47.35V183.31H127.88Z"/><path class="cls-1" d="M351.15,32.9h-16c0-3,.1-5.75,0-8.52C334.92,19.1,332,16,326.64,16q-43.17-.09-86.33,0c-6.07,0-8.9,3.09-8.91,9.47-.05,26.12,0,52.24-.1,78.35A38.51,38.51,0,0,1,229.46,115a131.81,131.81,0,0,0-6.11,42.24c.17,9,0,17.93,0,27.52l-7.73-.44c-.1-2-.26-3.58-.26-5.19q0-76.36,0-152.72C215.4,9.77,225.11,0,241.66,0H324c17.9,0,27.22,9.46,27.16,27.51C351.14,29.15,351.15,30.79,351.15,32.9Z"/><path class="cls-1" d="M0,319.14V303.76H223v15.38Z"/><path class="cls-1" d="M239.7,350.33c4.91,3.15,9.3,5.82,13.51,8.76a5.12,5.12,0,0,1,2,3.52c.06,27.94,0,55.88-.07,83.81,0,.12-.21.24-.55.62H239.7Z"/><path class="cls-1" d="M446.65,447H431.29c-.1-1.39-.28-2.82-.28-4.24,0-25.95.05-51.9-.1-77.84,0-3.42.95-5.52,3.94-7.18,3.88-2.15,7.52-4.74,11.8-7.48Z"/><path class="cls-1" d="M271.63,371.35a8,8,0,0,1,1.07.3c14.56,8.34,14.57,8.34,14.57,25v50.2H271.63Z"/><path class="cls-1" d="M55.3,176.06c.18.52.25.66.28.82C57,186,55.76,192.93,45,196.43c-7.46,2.43-13.85,8.13-21,12.52V176.06Z"/><path class="cls-1" d="M387.56,178.33a7,7,0,0,0-3.32,1.21c-.26.16-.48.37-.74.52l.05.16a1.32,1.32,0,0,0,.48.06c1.05-.16,2.05-.37,3.05-.58a2.87,2.87,0,0,0,.85-.48,1.39,1.39,0,0,0,.26-.68A1.43,1.43,0,0,0,387.56,178.33Z"/><path class="cls-1" d="M404.15,188.49a26.84,26.84,0,0,0-7.85,1.95c-2.68,1-5.21,2.43-8.27,2.48a3.34,3.34,0,0,0,2,.47,30.64,30.64,0,0,0,3.64-.68c3.58-1,7.16-2.11,10.74-3.22a19.16,19.16,0,0,0,1.85-.68v-.21A15.31,15.31,0,0,0,404.15,188.49Z"/><path class="cls-1" d="M447,237.12c0-16.63.1-33.27,0-49.91-.13-15.62.62-31.36-1-46.84C440.72,90.67,399,51.71,349.2,49c-59.43-3.21-109.58,43.76-109.8,103.19-.21,58.23,0,116.46-.11,174.69,0,3,.78,4.78,3.37,6.43q43.08,27.5,86,55.23c9.72,6.28,19.18,6.31,28.91,0q42.72-27.6,85.6-55c2.9-1.84,3.89-3.81,3.88-7.17C447,296.68,447,266.9,447,237.12Zm-27.94-31.24a4.76,4.76,0,0,0,.74-.27c.63-.31,1.21-.63,1.84-.94a2.81,2.81,0,0,1,.9-.27.45.45,0,0,1,.36.32,1,1,0,0,1-.21.42,18.27,18.27,0,0,1-2.16,1.47c-4,2-8.16,4-12.27,6-.84.37-1.74.68-2.63,1-.48.21-.9.47-1.37.63-3.27,1.26-6.59,2.48-9.85,3.79-2.53,1.06-5,2.27-7.43,3.32-2.64,1.16-5.32,2.27-8,3.37-1.94.85-3.89,1.69-5.84,2.58-6.32,3-12.65,5.85-18.86,8.91-5.32,2.63-10.54,5.42-15.8,8.16-3.48,1.84-6.91,3.69-10.28,5.58-3.63,2-7.21,4.17-10.85,6.27-3,1.74-5.95,3.43-8.9,5.22-3.64,2.16-7.27,4.37-10.9,6.58l-2.85,1.74a2.09,2.09,0,0,1-.63.26,48,48,0,0,1-12,1.16c-.42,0-.84-.15-1.27-.15a3.12,3.12,0,0,0-1.37.31,8.76,8.76,0,0,1-3.1.9H276c.42-.42.79-.74,1.1-1.11a5.54,5.54,0,0,0,.58-.63c.53-.69.48-.84-.37-1.06-.36-.1-.79-.26-.84-.73s-.37-.53-.74-.42-.89.36-1.37.52c-.26.11-.52.16-.89.32a3.46,3.46,0,0,1,.26-.48,9.79,9.79,0,0,1,.58-.84c.27-.42.63-.84.37-1.37s-.74-.47-1.21-.52c-.95-.06-1-.22-.74-1.11.16-.53.37-1,.58-1.53.11-.31,0-.52-.37-.52a3.12,3.12,0,0,0-.68,0,6.41,6.41,0,0,1-1.32.16c-.68,0-.89-.16-.95-.9s-.31-.95-1-1c-.42-.06-.79-.06-1.16-.11a4,4,0,0,1-.79-.21c-1.1-.53-1.26-1.26-.47-2.16.37-.37.74-.74,1.05-1.11l.05-.05a.79.79,0,0,0-.1-1.16c-.32-.31-.16-.52.05-.79.69-.68,1.32-1.31,1.95-1.95a1.78,1.78,0,0,0,.42-.52l-.05-.11a2.81,2.81,0,0,0-.74.11c-.63.16-1.31.42-2,.63-.53.21-.79,0-.79-.53a13.71,13.71,0,0,1,.16-1.42c.05-.63-.21-.79-.79-.53l-2.06,1.11a1.52,1.52,0,0,1-.52.16c.31-.42.68-.9,1.05-1.32s.48-.68.69-1.05a1.16,1.16,0,0,0-.21-1.58c-.48-.48-.43-1,.1-1.64a5.23,5.23,0,0,0,.79-1.15c.26-.58.11-.8-.42-1.11a5.35,5.35,0,0,1-.79-.79l.26-.74c.58-.63,1.11-1.21,1.74-1.79,1.58-1.42,3.16-2.84,4.79-4.21,1.32-1.11,2.59-2.32,4-3.38,3.84-2.84,7.69-5.68,11.64-8.37,4.16-2.85,8.38-5.58,12.59-8.27s8.69-5.32,13-8c3.53-2.16,7.06-4.31,10.59-6.37q7.74-4.58,15.85-8.43c3.53-1.68,7.12-3.26,10.7-4.84,2.26-1,4.58-1.85,6.9-2.74,1.42-.53,2.9-.95,4.37-1.48,2.85-1,5.58-2.11,8.43-3.05,4.42-1.48,8.9-2.9,13.33-4.32,2.21-.69,4.42-1.37,6.63-2.11l4.59-1.58A130.09,130.09,0,0,1,407.26,170V170a3.18,3.18,0,0,1-.84.64c-1.74.73-3.59,1.42-5.32,2.21-2.48,1.1-4.9,2.26-7.38,3.37-.47.21-1,.32-1.53.53a5.63,5.63,0,0,0-1.05.58.65.65,0,0,0-.21.52.5.5,0,0,0,.47.21,22.05,22.05,0,0,0,3.27-.68c2.16-.74,4.32-1.53,6.48-2.32a6.2,6.2,0,0,1,1-.21l-4.8,3.69c1.95-.48,3.74-1.32,5.69-1.64l.11.21-.79.8c-.95.79-1.9,1.58-2.79,2.37a3.5,3.5,0,0,0-.53.73l.1.16.79-.31,1.74-.64a.6.6,0,0,1,.42,0,3.64,3.64,0,0,0,2.69-.21l.11.16-6,4.32c2.27-.32,4.48-1,7-1.11a5.3,5.3,0,0,0-.53.53c-.11.16-.26.42-.21.53a.72.72,0,0,0,.47.31,3.82,3.82,0,0,0,2.32-.52,27.24,27.24,0,0,1,2.69-1.06,8.34,8.34,0,0,1,1.58-.1l0,.21c-.26.16-.47.37-.74.52-.79.58-.79.95-.1,1.59a8.2,8.2,0,0,1,.58.68,4.73,4.73,0,0,0-.9.26,5.23,5.23,0,0,0-.89.53.51.51,0,0,0-.16.53.69.69,0,0,0,.52.21,11,11,0,0,0,1.27-.27c.42-.1.79-.31,1.21-.42a2.76,2.76,0,0,1,.63-.1l.11.16a2.85,2.85,0,0,1-.58.57l-3,1.9c-.27.16-.69.32-.27.79.11.11-.1.53-.26.69a10.41,10.41,0,0,1-1.21.84,2.38,2.38,0,0,0-.42.42l.05.16a1.34,1.34,0,0,0,.63,0c1.79-.53,3.58-1.05,5.37-1.63.69-.22,1.37-.58,2.06-.85a5.27,5.27,0,0,1,1.26-.31,1,1,0,0,1-.16.47,2.88,2.88,0,0,1-.73.63c-2.48,1.48-5,2.9-7.43,4.27-.84.47-.9.47-.32,1.11,3.11-.74,5.85-2.43,8.75-3.69.68-.32,1.42-.53,2.11-.79a2.16,2.16,0,0,1,.84-.05c-1.21,1.31-2.9,1.89-4.16,3.16a2.56,2.56,0,0,0,2-.32c.58-.32,1-.74,1.68-1.16a1.36,1.36,0,0,1-.58,1.21c-1,.85-2,1.64-3.05,2.37-.9.64-1.9,1.22-2.85,1.79a4,4,0,0,0-.52.43c-.37.36-.32.63.15.84a4.34,4.34,0,0,1,.79.37,8,8,0,0,1,.48.68l-.11.16a10.88,10.88,0,0,1,1.27-.11,9.8,9.8,0,0,1,1.21,0c.58,0,.74.32.42.85a4.28,4.28,0,0,1-.9,1c-1.21.89-2.42,1.68-3.63,2.52l-1.16.85.05.16.64-.16a2.91,2.91,0,0,1,2.21-.06c.16.11.52-.05.74-.15,1.31-.69,2.52-1.37,3.84-2s2.53-1.1,3.79-1.63a.8.8,0,0,1,.48-.05c-1.21,1.42-3,2.16-4.22,3.53Z"/></g></svg>