<svg id="Layer_2" data-name="Layer 2" xmlns="http://www.w3.org/2000/svg" viewBox="0 0 200 195.05"><defs><style>.cls-1{fill:#da291c;}</style></defs><path class="cls-1" d="M131.4,63.89l23.88-9.18c0-11.31.08-23.63-.12-35.95,0-1.26-1.63-3.39-2.69-3.52-1.44-.18-3.09,1.17-4.62,1.9-3,1.44-5.87,3.73-9,4.19a50.62,50.62,0,0,1-14.95,0c-3.33-.53-6.35-3-9.52-4.51-1.35-.65-3.1-2.09-4-1.69a6.8,6.8,0,0,0-3.11,3.92c-.53,1.75-.17,3.77-.17,5.68V146.91c0,13,0,13,12.79,12.59,1.16,0,2.31-.23,4.29-.44V87.46h68.66v92.22H124.64V166.1H83.17v13.52H14.58V87.49H82.7v72c4,0,7.47-.19,10.89,0,5,.35,6.67-1.95,6.61-6.78-.18-14.53-.06-29-.06-43.58,0-28.82.06-57.63-.11-86.45,0-2.53-1.49-5.06-2.29-7.6-2.13,1.33-4.17,2.83-6.4,3.94-2,1-4.28,2.19-6.48,2.3A126.43,126.43,0,0,1,67,21.32C64.51,21.1,62.2,19,59.73,17.9c-2-.9-4.14-1.57-6.21-2.34-.24,3-1.55,8.34-.56,8.81,7.34,3.49,6,9.81,5.68,15.52C58,50.17,57.53,60,71.19,62.15c1.46.23,2.7,1.75,5.43,3.63h-57c4.72-2.64,7.67-5.21,11-6,7.93-1.84,8.78-6.59,6.5-14-6.93.88-14.28-2.95-20.7,4.4-3.67,4.2-9.25,3.11-13.39-1a9.57,9.57,0,0,1,.06-14c4.18-4.08,8.91-4.24,13.61-1a49.25,49.25,0,0,1,5.38,5l2.6-1.3c-1.06-2.74-1.51-6-3.31-8.11-4.57-5.36-5.29-10.83-1.15-15.24a10.26,10.26,0,0,1,14.71-.25c4.24,4.21,3.72,10.1-.67,15.28-1.81,2.13-2.5,5.22-3.8,8.08,5.75,2.06,7.38.85,7.86-3.82.29-2.86,2.79-5.47,4.15-8.27.94-1.95,2.13-4,2.31-6.05C45.36,13,48,8.6,55,7.84c1.14-.12,2.77-.21,3.28-.94C66.47-4.94,78.32,2.15,88.42,1.68,92.36,1.5,94.89,9,101,8.91c5.31-.11,10.47.51,14.2-4.59,1.13-1.55,3.34-3.15,5.13-3.23,7.36-.35,15.1-1.5,22,.29,6.26,1.61,12.11,6.11,17.19,10.44,2.14,1.84,2.48,6.5,2.57,9.91.3,11.15.12,22.32.12,33l24,9.21c-.2.64-.4,1.28-.59,1.93H131.92C131.75,65.19,131.57,64.54,131.4,63.89ZM48.52,128.42v0c-6.4,0-12.81,0-19.22,0-5.45,0-8.43,2.65-8.44,8.25,0,9.49-.05,19,0,28.48,0,5.6,3.13,8.15,8.56,8.16H67.15c5.75,0,8.86-2.63,8.82-8.64-.07-9.25,0-18.51,0-27.76,0-6-3.2-8.55-8.91-8.54Zm110.31,44.94c6.19,0,12.38,0,18.57,0,5.74,0,9-2.49,8.91-8.57-.08-9.29-.07-18.58,0-27.87,0-5.59-2.74-8.44-8.26-8.47-12.86-.05-25.73-.07-38.59,0-5.51,0-8.22,2.92-8.17,8.53.08,9.29,0,18.58,0,27.87,0,5.6,2.75,8.4,8.27,8.46C146,173.4,152.4,173.35,158.83,173.36Zm13.72-65.86a13.78,13.78,0,0,0-27.55.17,13.78,13.78,0,1,0,27.55-.17ZM62.06,108A13.71,13.71,0,0,0,48.84,94a14,14,0,0,0-14.23,13.86A13.83,13.83,0,0,0,48.3,121.45,13.54,13.54,0,0,0,62.06,108ZM51.4,32.72c-4.29-1.42-6.72-.8-6.54,4.11.17,4.71.16,9.44,0,14.15-.15,5.1,2.07,6.14,6.52,4.31ZM141,8.37H120c3.46,10.68,11.57,5,17,6.18C142,15.66,142,12.09,141,8.37ZM86.19,8.24H66.34c-2.27,7.94,3.37,7,7.1,6.29C77.82,13.65,85.81,19.13,86.19,8.24Z"/><path class="cls-1" d="M158.79,80.26c-11.42,0-22.84.18-34.25-.15-2.33-.07-4.62-2.09-6.92-3.22,2.2-1.18,4.4-3.37,6.62-3.39q34.61-.37,69.21,0c2.2,0,4.37,2.23,6.55,3.43-2.32,1.1-4.61,3.08-7,3.14-11.41.34-22.83.15-34.25.15Z"/><path class="cls-1" d="M49,80.24c-11.64,0-23.28.18-34.91-.16C11.81,80,9.58,77.94,7.33,76.8c2.22-1.15,4.43-3.27,6.66-3.29q34.55-.37,69.11,0c2.16,0,4.3,2.29,6.46,3.52-2.12,1.06-4.21,3-6.36,3C71.81,80.4,60.41,80.24,49,80.24Z"/><path class="cls-1" d="M29.07,182.8,24.36,195c-1.19-2.66-2.92-5.22-3.43-8C20.12,182.61,21.8,180.1,29.07,182.8Z"/><path class="cls-1" d="M129.62,187.88l4.84-6.52c1.22,2,3.46,4.09,3.41,6.09-.06,2.56-2,5.07-3.07,7.6Z"/><path class="cls-1" d="M77.7,187.77c-2.16,3.15-3.58,5.2-5,7.25-1.23-2.65-3.14-5.23-3.45-8-.2-1.74,2-3.76,3.11-5.65Z"/><path class="cls-1" d="M187.93,188l-5.26,7c-1.06-2.53-2.91-5.06-2.93-7.61,0-2,2.22-4,3.46-6Z"/><path class="cls-1" d="M68.71,135.8V149c-4.94-3.76-7.87-1.78-12.3,1.41-3.27,2.35-10.7,1.29-15-.81-5.09-2.47-8.72-5.42-13.15,3.37V135.8Z"/><path class="cls-1" d="M68.34,166.22H27.24c.81-3,.73-6.6,2.26-7.51,2.65-1.55,6.85-2.76,9.41-1.72,6.82,2.8,13.31,3.26,20,.58C67.46,154.19,69.68,156.05,68.34,166.22Z"/><path class="cls-1" d="M179.23,135.73v13.7c-4.91-4.25-7.89-3.11-12.22,1.09-4.18,4.06-11.08,2.88-15.82-1s-8.3-4.88-12.48,3.29V135.73Z"/><path class="cls-1" d="M178.93,166.12H137.45c1.08-3.13,1.23-6.71,2.85-7.59,2.67-1.45,6.76-2.37,9.4-1.34,6.6,2.57,12.89,3,19.38.51C177.81,154.38,179.87,155.9,178.93,166.12Z"/><path class="cls-1" d="M168.75,107.56c-4.68,3.34-7.41,6.79-9.79,6.56s-4.68-4-7-6.2c2.23-2.31,4.24-6.14,6.74-6.48S163.93,104.44,168.75,107.56Z"/><path class="cls-1" d="M46.68,115.52c-1.68-2.66-5-5.56-4.62-7.91s4.22-4.43,6.55-6.62c2.19,2.34,5.89,4.54,6.12,7s-3.26,5-5.1,7.6Z"/></svg>