<svg id="Layer_1" data-name="Layer 1" xmlns="http://www.w3.org/2000/svg" viewBox="0 0 105.05 138.4"><defs><style>.cls-1{fill:#fff;}</style></defs><path class="cls-1" d="M0,104.6c.8-3.34,1.35-6.76,2.43-10A136.64,136.64,0,0,1,18.18,62.37c3.28-5,7.79-8.6,13.81-9.87a25.18,25.18,0,0,1,5.2-.5q17.49-.06,35,0a19.33,19.33,0,0,1,16.49,8.58A128,128,0,0,1,103,86.16c3.39,8.33,2.59,16.38-2.64,23.79a44.2,44.2,0,0,1-17,14.9,19.51,19.51,0,0,1-12.13,1.71c-5.82-1.08-8.57-6.87-5.49-11.89a40.43,40.43,0,0,1,4.66-5.43,27.38,27.38,0,0,1,2.1-1.92c-2.66,0-5.06.32-7.34-.07a18.19,18.19,0,0,1-12-6.78c-2.72-3.58-5.09-7.4-7.64-11.1a21.68,21.68,0,0,0-2.35-3.09c-1.92-2-4.3-2.08-6.67-1.11s-3.11,2.88-3.23,5.17c-.21,4.16,1.59,7.79,3.22,11.42,1.44,3.19,1.23,3.87-2,5.27-3.45,1.49-7.14,1.79-10.83,2.06a16.24,16.24,0,0,0-2.52.33c-.39.09-1.05.47-1,.65a1.73,1.73,0,0,0,.7,1.18,48.72,48.72,0,0,0,4.66,2.39,56.45,56.45,0,0,0,23.72,4.19,18.59,18.59,0,0,1,6.89,1c5.64,2.18,6.62,9.81,2,14.21a19.35,19.35,0,0,1-11.89,5.17c-12.66,1.06-24.13-2.5-34.53-9.58C4.82,124,1.38,117.15.28,109A8.48,8.48,0,0,0,0,107.91ZM70.23,72.79a15.59,15.59,0,1,0-.4,31.17,15.59,15.59,0,1,0,.4-31.17Z"/><path class="cls-1" d="M75.25,22.49a22.72,22.72,0,0,1-45.44.19,22.72,22.72,0,0,1,45.44-.19Z"/></svg>