<svg id="Layer_2" data-name="Layer 2" xmlns="http://www.w3.org/2000/svg" viewBox="0 0 200 198.76"><defs><style>.cls-1{fill:#da291c;}</style></defs><path class="cls-1" d="M200,92.73c-3.57-1.86-5.25-12.57-.66-15.63-4.05,1.27-6.27-8.38-1.39-12.5-6.48,1.11-4.81-8.8-3.59-10.19.36-.43-4.06,1.15-6.83-9.58-1-4-2.54-9-4.76-15.2l-.46.11-.15-.45c-6.45,1.36-11.5,2.7-15.44,3.92-10.59,3.27-11.57-1.32-11.73-.79-.56,1.77-8.11,8.39-10.57,2.29-.94,6.32-10.32,9.49-11.37,5.37-.19,5.52-10.19,9.7-13.65,7.65-.89,3-4.29,7.22-7.62,9.14l-.2-.38c-5.64-2.79-5.08-9-7.28-13.61A72.66,72.66,0,0,0,82.6,16l-5.76,5.89L55.76,0c-4,4.6-7.44,8.15-10.4,12.08s-5.6,8.43-8.53,12.9l-7.3-5.66c-3.77,5.27-7.16,10.17-10.72,15-7.08,9.5-7.41,21.54-12.27,32C-.67,81.92-1,98.84,5.23,115.54L0,117.17c.94,13.4,6.4,24.68,14.58,34.75,11.88,14.62,28,20.92,46.51,22.78.45,6.69.89,13.2,1.32,19.59l13-1.24c-.73-6.23-1.49-12.71-2.24-19a99.52,99.52,0,0,0,13-5.2q3.11,3.3,6.65,6.5c-3.31,5.27-5.79,11.54-9.06,16.74l5.92,3.48,6.07,3.21c2.72-5.51,6.75-10.9,9.5-16.49,20,5.91,38.3,5.46,53.41.55,5.17-1.68,10.79-9,14.71-9.69-1.81-2.18,4.35-11.64,8.28-12.9-3.06-2.16.81-9.28,3.64-8.46-2.91-2.82-.39-9,3.77-8.42-3.83-3.42,1.9-10.6,4.43-11.12-1.91-1.57-.09-9.91,2.95-10.5-4.56-1.53-1.74-11.49,1.66-13.29C194.32,106.17,196.79,96.3,200,92.73ZM169.24,61.35c3.19-6.29,11.36-8.16,13.81-8.13.45,6.51,4.66,16.89,2.19,19.28-2,2-17.52,3.71-29.46,14.82C154.94,84.61,166.66,66.85,169.24,61.35ZM144.36,49.67c.74-3.35,11.79-5.21,17.57-8.24,1.31,2.07,4,10,.32,16C158.92,62.53,150,81.82,147.2,82.54,150.4,66.54,143.76,52.42,144.36,49.67Zm-7,3.31c1.13,1.17,3.42,7.13,3.59,7.53,3.21,7.73,3.71,17.75,1.15,27.66-2,7.65-10.38,22.1-15.71,27.94a32.6,32.6,0,0,0-1.23-7.82l-1.6-.31c-.27-5-.78-10.2-1.49-14.77,0-10.81-2.91-21-7.54-30.88C123.38,53.26,134.63,50.15,137.36,53ZM95.07,113l-4.49,1.8L82.73,118a10.24,10.24,0,0,1-4.1-8.63h0a13.83,13.83,0,0,1,.08-1.42.28.28,0,0,1,0-.09c0-.49.12-1,.22-1.49v0c.08-.46.19-.93.32-1.41,0-.11,0-.22.08-.33.13-.49.27-1,.44-1.49,4.33-13.25,10.44-25,23.1-32.25a18.75,18.75,0,0,1,1.75-.68c.08.18.15.37.23.56h0c4.93,11.86,6.94,23.82,2.78,36.33-.28.82-1.55,1.48-2.5,1.88C101.81,110.29,98.47,111.65,95.07,113ZM74.76,48.44c2.52-4.89,5.26-9.66,8.35-15.24a49.74,49.74,0,0,1,13.2,25.1,3.94,3.94,0,0,1-1.45,3c-3.15,2.59-6.47,5-9.9,7.54-3.51-5.47-7.17-11-10.57-16.69C73.87,51.27,74.21,49.49,74.76,48.44Zm-25.36-20c1.91-3.56,4.24-6.89,7.14-11.53,4.08,5.74,8.11,10.5,10.92,15.89.91,1.75-1.4,5.17-2.5,8.66l-7.24-6.29-6,6.31C46,35.7,45.77,35.18,49.4,28.44ZM45.89,81.52a76.29,76.29,0,0,1,12.87-28.6A75.29,75.29,0,0,1,75.44,79.47a4.26,4.26,0,0,1-.25,2.86c-2.56,6-5.23,11.92-8,18.21l-5.39-3.92-4.64,4.68c-3.77-6-7.49-11.8-11.12-17.68A3.12,3.12,0,0,1,45.89,81.52ZM32,36.7C35.87,42.13,39.43,47,42.83,51.94a3.43,3.43,0,0,1,.22,2.84c-2.55,5.83-5.26,11.6-7.93,17.42-4-2.07-7.94-4.09-11.84-6.27a2.59,2.59,0,0,1-1-2.06A51.12,51.12,0,0,1,32,36.7ZM15.84,76.27c10.31,3.35,17.35,9.9,22.86,18.2,2.41,3.62,4.07,7.72,6.32,11.46,3.36,5.6,2.83,10.69-.91,14.78-8.49-2.06-16.62-3.93-24.67-6.1-1.05-.28-2-1.9-2.51-3.11C12.2,100.09,12.6,88.5,15.84,76.27Zm51.4,86c-23.19,1.49-43.64-9.92-52.71-35.12,15-1.1,25.82,6.45,36.56,17,1-11.86,4.4-21.71,11.9-30.13.81.65,1.56,1.33,2.29,2a40.82,40.82,0,0,1,4.26,4.7l.23.29c.23.3.46.62.68.93s.29.4.42.6l.55.8.54.85.4.65c.31.51.6,1,.89,1.54h0A64,64,0,0,1,79,141.9c5.21-6.12,10-11.91,16.07-15.85h0a32.78,32.78,0,0,1,4.52-2.46,28.61,28.61,0,0,1,3.18-1.2c3.29-1,6.67-1.71,10.19-2.59-.52,6.94-3.38,14-7.85,20.24-.59.84-1.22,1.65-1.86,2.46-.09.11-.18.21-.26.32-.67.82-1.37,1.63-2.09,2.41h0a55.83,55.83,0,0,1-13,10.47A49.68,49.68,0,0,1,83.45,158l-.12.06c-.73.33-1.47.64-2.21.94L81,159c-.77.31-1.54.6-2.32.86A44.54,44.54,0,0,1,67.24,162.23Zm29.2.81c1.23-.8,2.43-1.61,3.59-2.45-.23,1.59-.49,3.13-.76,4.57C98.33,164.47,97.38,163.77,96.44,163Zm14.15,8.43c5.85-5.31,14.25-11.87,21.49-14.26,5.1-1.67,15.24-2.72,25.93-4.66,5.63-1,12.25-.74,13.46,1.18C160.38,185.53,131.4,180.08,110.59,171.47Zm60.52-24.42c-.69.52-2.19.32-3.25.09-5.53-1.19-37.5,4.07-46.16,8.94-2.13-5.53,16.28-25.46,25.39-30.37,12.3-6.62,24.18-12.4,39.37-11a19.28,19.28,0,0,1,1.94.45C186.43,128,181.76,139.11,171.11,147.05ZM189,108.27c-.26.73-14.68,1-22.1,3.41-8.22,2.61-20.64,8.76-29.35,14.43-.35-5.12,9.59-24.7,16.11-31.49,7.09-7.37,15.89-12.21,24.15-13.53.43-.07,6.71-1.24,8.29-.89C190.33,81.12,193.85,94.6,189,108.27Z"/></svg>