<svg xmlns="http://www.w3.org/2000/svg" viewBox="0 0 68.62 167.64"><defs><style>.cls-1{fill:#da291c;}</style></defs><g id="Layer_1" data-name="Layer 1"><g id="hug"><path class="cls-1" d="M26.28,119c-.9,14.73-7.46,27.86-11.29,41.68-1,3.52-5.3,5.2-9.08,4.41A7.59,7.59,0,0,1,0,157.43a17.6,17.6,0,0,1,.93-4.49c2.47-8.18,5.73-16.2,7.3-24.54,1.4-7.47,1.33-15.3,1.14-23-.08-3.25-2.91-6.4-3.11-9.69-.27-4.39.81-8.86,1.37-13.84,4.49,3.46,8.42,2.6,12.45.19C23,80.38,26.22,79.28,29,77.47c3.59-2.33,7-2.44,11.08-1.29C47,78.15,54,79.77,61,81.1c2.23.42,4.72-.55,7.38-.93.09,4.52,1.08,9.58-2,14.34-.82,1.27-.81,3.21-.82,4.84,0,19.23,0,38.46,0,57.69,0,7.9-6.27,12.68-12.64,9.71-4.24-2-5.42-5.67-5.4-10.08q.08-28.84,0-57.69c0-2.06-.73-4.11-1.2-6.54-2.43,3.13-4.38,5.45-6.08,8a4.45,4.45,0,0,0-.71,3.27c4.88,17.23,4.46,35,5.11,52.59.2,5.42-3,8.93-7.8,9-5,.09-7.84-3-8.09-8.63q-.74-16.8-1.63-33.58A28.3,28.3,0,0,0,26.28,119Z"/><path class="cls-1" d="M15.9,82a5.51,5.51,0,0,1-5.5-.89,5.22,5.22,0,0,1-2.15-2.82,8.59,8.59,0,0,1,2.66-6.72c2.71-2.29,6.21-3.81,9.57-5.15,9.89-4,17.69-10.59,24.79-18.29C48.22,44.94,51.4,42,54.54,39s6.78-3.14,9.29-.44c2.31,2.47,2.08,6.11-.8,9Q52.28,58.17,41.37,68.69a15.81,15.81,0,0,1-3.84,2.51Q27.44,76.38,17.26,81.41A14.59,14.59,0,0,1,15.9,82Z"/><path class="cls-1" d="M62.65,14.85a14.58,14.58,0,0,1-14.89,14.9c-7.69,0-14.74-6.67-14.69-13.9C33.14,6.92,39.39.12,47.67,0A14.75,14.75,0,0,1,62.65,14.85Z"/><path class="cls-1" d="M43.13,31.07c-5.14,4.55-10.5,5.68-16.08,3.32S18.32,27.31,17.76,21a17.86,17.86,0,0,0-1.91-6c-1.52-3.07-1.62-5.93.6-8.59a6.85,6.85,0,0,1,7.92-2.26c2.75.9,5.5,1.76,7.69,2.45,0,4.46-.81,9.51.22,14.15C33.4,25.78,37.86,28.8,43.13,31.07Z"/><path class="cls-1" d="M49.45,64.32C54.55,59,59.9,53.88,64.58,48.22a10.17,10.17,0,0,0,2-7.87c-.56-2.17-3.43-4.74-5.67-5.18s-5.44.95-7.45,2.52c-3,2.38-5.38,5.62-8.44,8.17-1.09-5.24,0-9.62,4-12.83a11.29,11.29,0,0,1,13-1.4c4.54,2.32,6.7,6.09,6.65,11.23-.07,9,0,17.92,0,26.54Z"/><path class="cls-1" d="M37.73,73.88c2.85-2.47,5.35-4.81,8.05-6.88a4.54,4.54,0,0,1,3.29-.66c4.77,1,9.48,2.25,14.24,3.33,3.55.8,5.1,3.08,4.17,6.43-.89,3.19-3.39,4-6.62,3.19C53.21,77.41,45.52,75.69,37.73,73.88Z"/><path class="cls-1" d="M34.26,57.14l-9,4.82c-3.95-5.2-7.81-10.13-11.48-15.18-1.89-2.61-1-5.18,1.26-7s4.8-1.16,6.59,1.1C25.68,46,29.66,51.22,34.26,57.14Z"/><path class="cls-1" d="M10.05,69.69V44.86c4.77,6.35,9,12,13.49,17.93Z"/><path class="cls-1" d="M14,37.76c6.84-4.31,12.59-3.21,17.1,2.86,2.66,3.59,5.33,7.17,8.22,11.06l-4.36,3.44c-3.44-4.48-7.07-9.06-10.54-13.77C21.74,37.76,18.78,35.45,14,37.76Z"/></g></g></svg>