<svg xmlns="http://www.w3.org/2000/svg" width="26.566" height="26.566" viewBox="0 0 26.566 26.566">
  <path id="Path_40" data-name="Path 40" d="M13.283,2.361a40.728,40.728,0,0,1,5.313.148,6.845,6.845,0,0,1,2.509.443,5.183,5.183,0,0,1,2.509,2.509,6.845,6.845,0,0,1,.443,2.509c0,1.328.148,1.771.148,5.313a40.728,40.728,0,0,1-.148,5.313,6.845,6.845,0,0,1-.443,2.509,5.183,5.183,0,0,1-2.509,2.509,6.845,6.845,0,0,1-2.509.443c-1.328,0-1.771.148-5.313.148a40.728,40.728,0,0,1-5.313-.148,6.845,6.845,0,0,1-2.509-.443,5.183,5.183,0,0,1-2.509-2.509A6.845,6.845,0,0,1,2.509,18.6c0-1.328-.148-1.771-.148-5.313A40.728,40.728,0,0,1,2.509,7.97a6.845,6.845,0,0,1,.443-2.509A5.3,5.3,0,0,1,3.985,3.985,2.5,2.5,0,0,1,5.461,2.952,6.845,6.845,0,0,1,7.97,2.509a40.728,40.728,0,0,1,5.313-.148m0-2.361A43.608,43.608,0,0,0,7.822.148a9.112,9.112,0,0,0-3.247.59A5.778,5.778,0,0,0,2.214,2.214,5.778,5.778,0,0,0,.738,4.575a6.725,6.725,0,0,0-.59,3.247A43.608,43.608,0,0,0,0,13.283a43.608,43.608,0,0,0,.148,5.461,9.111,9.111,0,0,0,.59,3.247,5.778,5.778,0,0,0,1.476,2.361,5.778,5.778,0,0,0,2.361,1.476,9.112,9.112,0,0,0,3.247.59,43.608,43.608,0,0,0,5.461.148,43.608,43.608,0,0,0,5.461-.148,9.112,9.112,0,0,0,3.247-.59,6.192,6.192,0,0,0,3.837-3.837,9.111,9.111,0,0,0,.59-3.247c0-1.476.148-1.919.148-5.461a43.608,43.608,0,0,0-.148-5.461,9.112,9.112,0,0,0-.59-3.247,5.778,5.778,0,0,0-1.476-2.361A5.778,5.778,0,0,0,21.991.738a9.111,9.111,0,0,0-3.247-.59A43.608,43.608,0,0,0,13.283,0m0,6.494a6.68,6.68,0,0,0-6.789,6.789,6.789,6.789,0,1,0,6.789-6.789m0,11.217a4.349,4.349,0,0,1-4.428-4.428,4.349,4.349,0,0,1,4.428-4.428,4.349,4.349,0,0,1,4.428,4.428,4.349,4.349,0,0,1-4.428,4.428M20.367,4.575A1.623,1.623,0,1,0,21.991,6.2a1.638,1.638,0,0,0-1.623-1.623" fill="#fff" fill-rule="evenodd"/>
</svg>
