<svg xmlns="http://www.w3.org/2000/svg" viewBox="0 0 150.16 126.22"><defs><style>.cls-1{fill:#da291c;}</style></defs><g id="Layer_1" data-name="Layer 1"><g id="kneel"><path class="cls-1" d="M96.07,97.73c-16.37,1-22.87-9.2-27.16-22.58-2,.49-4,1.13-6.08,1.41a15.31,15.31,0,0,1-5.1,0c-3-.61-3.94-2.23-2.81-5.47,3.15-9,6-18.1,8.85-27.19a48.86,48.86,0,0,0,1.08-6,13.29,13.29,0,0,1,1.56.71C80,46.67,94.9,51.62,109.73,56.69c8,2.71,11.62,8.35,13,16a13.19,13.19,0,0,1-.79,5.87c-2.65,8.63-5.46,17.22-8.2,25.83-.26.81-.41,1.65-.72,3,9.44,0,18.57-.09,27.7,0a9.39,9.39,0,1,1-.3,18.78c-13.21.08-26.42.18-39.62,0-7.9-.11-11.8-5.78-9.52-13.32C92.77,107.88,94.39,103,96.07,97.73Z"/><path class="cls-1" d="M43.94,84.27C32.16,83,22,82,11.94,80.88A5.77,5.77,0,0,1,6.64,74c.42-3.12,3.31-5.17,6.93-4.8,7.62.8,15.25,1.52,22.83,2.54,2.79.37,4-.37,4.79-3.09,3-10,6.28-19.82,9.46-29.72.94-2.94,2.87-4.76,6-4.74a5.41,5.41,0,0,1,5.49,4.31A6.77,6.77,0,0,1,62,42.12C58,54.66,53.9,67.17,49.91,79.7,48.67,83.59,45.9,84.51,43.94,84.27Z"/><path class="cls-1" d="M0,126c2-15.22,4-30.18,6-45.29l5.82,2.8C10,97.61,8.07,111.83,6.17,126Z"/><path class="cls-1" d="M34.93,85.43l6.12.94c1.79,13.22,3.57,26.33,5.34,39.43-5.73.8-5.76.75-6.46-4.41C38.32,109.62,36.66,97.87,34.93,85.43Z"/><path class="cls-1" d="M50.21,34,43.3,54.4c-2.65-2.95-3.59-6.16-2.59-9.9C42.19,39,45.84,35.12,50.21,34Z"/><path class="cls-1" d="M.16,78.61V72.89l4-.22c.24,2,.46,3.9.69,5.94Z"/><path class="cls-1" d="M39.26,14.27c3-4.26,4-8.28.51-11.47A11.57,11.57,0,0,0,31.38.07c-5.33.78-6.25,5.47-6.33,10a17.69,17.69,0,1,0,14.21,4.19Z"/></g></g></svg>