<?xml version="1.0" encoding="utf-8"?>
<!-- Generator: Adobe Illustrator 24.1.1, SVG Export Plug-In . SVG Version: 6.00 Build 0)  -->
<svg version="1.1" id="Layer_1" xmlns="http://www.w3.org/2000/svg" xmlns:xlink="http://www.w3.org/1999/xlink" x="0px" y="0px"
	 width="238.9px" height="99.8px" viewBox="0 0 238.9 99.8" style="enable-background:new 0 0 238.9 99.8;" xml:space="preserve">
<path id="Path_14" d="M46.3,90.9L4.6,99.7c-0.6,0.1-1.2,0.1-1.8,0c-0.5-0.1-1-0.3-1.5-0.7c-0.4-0.3-0.7-0.8-1-1.2
	C0.1,97.3,0,96.7,0,96V50.4l9.1-1.9v41.1l37.2-7.8V90.9z M62.2,87.5l-9.1,1.9V39.2l9.1-1.9L62.2,87.5z M122.7,70.2
	c0,0.6-0.1,1.3-0.4,1.9c-0.2,0.6-0.6,1.2-1,1.7c-0.4,0.5-0.9,0.9-1.5,1.3c-0.6,0.4-1.2,0.6-1.8,0.7l-33,6.9
	c-0.9,0.2-1.8,0.3-2.7,0.3c-1,0-2-0.1-2.9-0.3c-1-0.2-1.9-0.6-2.7-1.1c-0.9-0.5-1.7-1.2-2.3-1.9c-0.7-0.9-1.2-1.9-1.6-3
	c-0.4-1.3-0.6-2.7-0.6-4.1V48c0-0.9,0.1-1.8,0.3-2.8c0.2-1,0.5-2.1,0.9-3.1c0.4-1.1,1-2.1,1.7-3.1c0.7-1,1.5-2,2.4-2.8
	c1-0.9,2.1-1.7,3.3-2.3c1.4-0.7,2.8-1.2,4.2-1.5l37.2-7.8v9.1l-37.2,7.8c-1,0.1-2,0.7-2.7,1.5c-0.7,0.9-1,2-0.9,3v24.6
	c-0.1,1,0.3,1.9,1,2.5c0.7,0.5,1.7,0.7,2.7,0.4l28.4-6V56.2l-24.3,5.1v-9.2l28.9-6.1c0.6-0.1,1.3-0.1,1.8,0c0.5,0.1,1,0.4,1.5,0.7
	c0.4,0.3,0.7,0.8,1,1.3c0.2,0.5,0.4,1.1,0.4,1.7V70.2z M145.1,40.3l28.4-6V13.8l9.1-1.9v50.4l-9.1,1.9V43.6l-28.4,6L145.1,40.3z
	 M218.7,16.9v37.8l-9.1,1.9V18.8L218.7,16.9z M189.4,19.6v-9.1L238.9,0v9.1L189.4,19.6z M173.5,34.4 M132.3,72.8V22.5l9.1-1.9v50.3
	C141.4,70.9,132.4,72.8,132.3,72.8z M141.4,20.6"/>
</svg>
