<?xml version="1.0" encoding="utf-8"?>
<!-- Generator: Adobe Illustrator 24.1.1, SVG Export Plug-In . SVG Version: 6.00 Build 0)  -->
<svg version="1.1" id="Layer_1" xmlns="http://www.w3.org/2000/svg" xmlns:xlink="http://www.w3.org/1999/xlink" x="0px" y="0px"
	 viewBox="0 0 303.8 193.8" style="enable-background:new 0 0 303.8 193.8;" xml:space="preserve">
<style type="text/css">
	.st0{fill:#DA291C;}
	.st1{fill:#FFFFFF;}
</style>
<g id="logo" transform="translate(4 5)">
	
		<image style="overflow:visible;opacity:0.2;" width="352" height="243" xlink:href="F4A1CD84.png"  transform="matrix(1 0 0 1 -20.0865 -22.7023)">
	</image>
	<g>
		<g>
			<g transform="matrix(1, 0, 0, 1, -4, -5)">
				<path id="Path_9-2_12_" class="st0" d="M302.6,65.4c-0.6,0.1-1.1,0.2-1.7,0.5c-1.2,0.6-2.3,1.2-3.5,1.8
					c-0.5,0.2-0.9,0.4-1.4,0.5l-0.2-0.3c2.3-2.6,5.7-4,8-6.7c-0.3-0.1-0.6,0-0.9,0.1c-2.4,1-4.9,2-7.2,3.1c-2.5,1.2-4.8,2.5-7.3,3.8
					c-0.4,0.2-1.1,0.5-1.4,0.3c-1.5-0.8-2.8-0.2-4.2,0.1c-0.4,0.1-0.8,0.2-1.2,0.3l-0.1-0.3c0.7-0.5,1.5-1.1,2.2-1.6
					c2.3-1.6,4.6-3.1,6.9-4.8c0.7-0.5,1.2-1.2,1.7-1.9c0.6-1,0.3-1.5-0.8-1.6c-0.8,0-1.5,0-2.3,0.1c-0.8,0-1.6,0.1-2.4,0.2l0.2-0.3
					c-0.3-0.5-0.6-0.9-0.9-1.3c-0.5-0.3-1-0.5-1.5-0.7c-0.9-0.4-1-0.9-0.3-1.6c0.3-0.3,0.6-0.5,1-0.8c1.8-1.1,3.7-2.2,5.4-3.4
					c2-1.4,3.9-2.9,5.8-4.5c0.7-0.5,1.2-1.4,1.1-2.3c-1.2,0.8-2.1,1.6-3.2,2.2c-1.1,0.7-2.4,0.9-3.7,0.6c2.4-2.4,5.6-3.5,7.9-6
					c-0.5-0.1-1.1,0-1.6,0.1c-1.3,0.5-2.7,0.9-4,1.5c-5.5,2.4-10.7,5.6-16.6,7c-1.1-1.2-1-1.2,0.6-2.1c4.7-2.6,9.4-5.3,14.1-8.1
					c0.5-0.3,1-0.7,1.4-1.2c0.1-0.1,0.2-0.4,0.3-0.9c-0.8,0.1-1.6,0.3-2.4,0.6c-1.3,0.5-2.6,1.2-3.9,1.6c-3.4,1.1-6.8,2.1-10.2,3.1
					c-0.4,0.1-0.8,0.1-1.2,0l-0.1-0.3c0.3-0.3,0.5-0.6,0.8-0.8c0.8-0.5,1.6-1,2.3-1.6c0.3-0.3,0.7-1.1,0.5-1.3
					c-0.8-0.9,0-1.2,0.5-1.5c1.9-1.2,3.8-2.4,5.7-3.6c0.4-0.3,0.8-0.7,1.1-1.1l-0.2-0.3c-0.4,0-0.8,0.1-1.2,0.2
					c-0.8,0.2-1.5,0.6-2.3,0.8c-0.8,0.2-1.6,0.4-2.4,0.5c-0.4,0-0.7-0.1-1-0.4c-0.1-0.4,0-0.7,0.3-1c0.5-0.4,1.1-0.7,1.7-1
					c0.5-0.2,1.1-0.4,1.7-0.5c-0.4-0.5-0.7-0.9-1.1-1.3c-1.3-1.2-1.3-1.9,0.2-3c0.5-0.3,0.9-0.7,1.4-1l-0.1-0.4c-1,0-2,0-3,0.2
					c-1.7,0.6-3.4,1.2-5.1,2c-1.3,0.8-2.8,1.1-4.4,1c-0.4-0.1-0.7-0.3-0.9-0.6c-0.1-0.2,0.2-0.7,0.4-1c0.3-0.3,0.6-0.7,1-1
					c-4.7,0.3-8.9,1.5-13.2,2.1l11.3-8.2l-0.2-0.3c-1.7,0.6-3.3,1.1-5.1,0.4c-0.3-0.1-0.6-0.1-0.8,0c-1.1,0.4-2.2,0.8-3.3,1.2
					l-1.5,0.6l-0.2-0.3c0.3-0.5,0.6-1,1-1.4c1.7-1.5,3.5-3,5.3-4.5c0.5-0.5,1-1,1.5-1.5l-0.2-0.4c-3.7,0.6-7.1,2.2-10.8,3.1l9.1-7
					c-0.6,0.1-1.2,0.2-1.8,0.4c-4.1,1.5-8.2,3-12.3,4.4c-2,0.6-4.1,1-6.2,1.3c-0.4,0-0.7-0.1-0.9-0.4c0-0.4,0.1-0.7,0.4-1
					c0.6-0.4,1.3-0.8,2-1.1c1-0.4,2-0.6,2.9-1c4.7-2.1,9.3-4.3,14-6.4c3.3-1.5,6.8-2.8,10.1-4.2c0.6-0.3,1.1-0.7,1.6-1.2L273.6,0
					c-8.7,1.9-17.1,5-25.5,7.8c-2.9,1-5.8,2-8.7,3c-4.2,1.4-8.4,2.7-12.6,4c-8.4,2.7-16.9,5.4-25.3,8.2c-5.4,1.8-10.6,3.9-16,5.8
					c-2.8,1-5.6,1.8-8.3,2.8c-4.4,1.7-8.8,3.3-13.1,5.2c-6.8,3-13.6,6-20.3,9.2c-10.3,4.9-20.3,10.2-30.1,16
					c-6.7,3.9-13.4,8-20.1,12.1c-8.2,5-16.5,10-24.7,15.1c-8,5.1-16,10.3-23.9,15.7c-7.5,5.1-14.8,10.5-22.1,15.9
					c-2.7,2-5.1,4.3-7.6,6.4c-3.1,2.6-6.1,5.3-9.1,8c-1.2,1.1-2.2,2.2-3.3,3.4l-0.5,1.4c0.4,0.5,0.9,1,1.5,1.5c1,0.6,1.3,1,0.8,2.1
					c-0.4,0.8-0.9,1.5-1.5,2.2c-1,1.2-1.1,2.2-0.2,3.1c0.9,0.7,1.1,2,0.4,3c-0.4,0.7-0.8,1.3-1.3,2c-0.7,0.8-1.4,1.7-2,2.5
					c0.4,0,0.7-0.2,1-0.3c1.3-0.7,2.6-1.4,3.9-2.1c1.1-0.5,1.6-0.2,1.5,1c-0.1,0.9-0.3,1.8-0.3,2.7c0,1,0.5,1.4,1.5,1
					c1.3-0.4,2.6-0.9,3.8-1.2c0.4-0.1,0.9-0.2,1.4-0.2l0.1,0.2c-0.2,0.4-0.5,0.7-0.8,1c-1.2,1.2-2.4,2.4-3.7,3.7
					c-0.4,0.5-0.7,0.9-0.1,1.5c0.7,0.6,0.8,1.6,0.2,2.2c0,0-0.1,0.1-0.1,0.1c-0.6,0.7-1.3,1.4-2,2.1c-1.5,1.7-1.2,3.1,0.9,4.1
					c0.5,0.2,1,0.3,1.5,0.4c0.7,0.1,1.4,0.1,2.2,0.2c1.3,0.2,1.8,0.6,1.9,2s0.5,1.7,1.8,1.7c0.8,0,1.6-0.1,2.5-0.3
					c0.4-0.1,0.9-0.1,1.3-0.1c0.7,0,0.9,0.4,0.7,1c-0.4,1-0.8,1.9-1.1,2.9c-0.6,1.7-0.4,2,1.4,2.1c0.9,0.1,1.9,0,2.3,1
					c0.5,1-0.2,1.8-0.7,2.6c-0.4,0.5-0.8,1.1-1.1,1.6c-0.1,0.2-0.3,0.4-0.5,0.9c0.7-0.3,1.2-0.4,1.7-0.6c0.9-0.3,1.7-0.7,2.6-1
					c0.7-0.2,1.3-0.1,1.4,0.8c0.1,0.9,0.9,1.2,1.6,1.4c1.6,0.4,1.7,0.7,0.7,2c-0.3,0.4-0.7,0.8-1.1,1.2c-0.6,0.7-1.3,1.3-2.1,2.1
					c0.2,0,0.5,0,0.7,0c2.1-0.2,4.1-0.8,5.9-1.7c0.8-0.4,1.7-0.6,2.6-0.6c0.8,0,1.6,0.3,2.4,0.3c7.7,0.2,15.3-0.5,22.8-2.2
					c0.4-0.1,0.9-0.3,1.2-0.5c1.8-1.1,3.6-2.2,5.4-3.3c6.9-4.2,13.8-8.4,20.7-12.5c5.6-3.4,11.2-6.6,16.9-9.9
					c6.9-4,13.7-8.1,20.6-11.9c6.4-3.6,12.9-7.1,19.5-10.6c10-5.2,19.9-10.5,30-15.5c11.8-5.8,23.8-11.3,35.8-16.9
					c3.7-1.7,7.4-3.3,11.1-4.9c5-2.1,10.1-4.2,15.1-6.4c4.7-2,9.3-4.3,14.1-6.3c6.2-2.5,12.5-4.8,18.7-7.2c0.9-0.3,1.7-0.8,2.6-1.2
					c1.7-0.6,3.4-1.2,5-1.9c7.8-3.7,15.6-7.5,23.3-11.3c1.4-0.8,2.8-1.8,4.1-2.8c0.2-0.2,0.3-0.5,0.4-0.8
					C303.2,65.7,302.9,65.4,302.6,65.4z M236.9,17.6c-0.5,0.4-1,0.7-1.6,0.9c-1.9,0.4-3.8,0.8-5.8,1.1c-0.3,0-0.6,0-0.9-0.1
					l-0.1-0.3c0.5-0.3,0.9-0.7,1.4-1c1.9-1.3,4.1-2.1,6.3-2.3c0.4,0,0.8,0.2,1.2,0.4C237.3,16.8,237.2,17.3,236.9,17.6z M268.2,37.1
					c-6.8,2.1-13.6,4.2-20.4,6.1c-2.3,0.6-4.6,1-6.9,1.3c-1.3,0.1-2.7-0.2-3.8-0.9c5.8-0.1,10.6-2.8,15.7-4.7
					c4.8-1.8,9.7-3.4,14.9-3.7c1.3-0.1,2.6,0.1,4,0.2l0,0.4C270.6,36.3,269.4,36.7,268.2,37.1L268.2,37.1z"/>
			</g>
			<path id="Path_10_12_" class="st1" d="M218.9,63.5c-1-2.7-2.3-5.3-3.8-7.8c-1.1-2.4-1.9-4.8-2.5-7.4c-2.4,2.3-5.2,4.4-8.1,6
				c-0.1,2.3-0.2,4.7-0.5,7c-0.2,1.6-1.4,10.7-2.6,14.8c-1.4,4.9-2.8,7.7-4.2,8.4c-0.8,0.4-1.4,0.2-1.8-0.7
				c-0.4-0.8-0.5-2.8-0.2-5.9s0.2-5.1-0.3-6c-1.2-2.3-3.6-2.5-7.1-0.6c-1.7,1-3.2,2.2-4.5,3.6c1.6-3,3.5-5.9,5.6-8.6
				c0.8-1.1,1.8-2,2.8-2.7c1.2-0.6,2.3-0.4,3.3,0.8c0.1,0,0.3,0,0.4-0.1c0.7-0.5,1.1-1.2,1.1-2.1c0.2-0.9,0-1.8-0.3-2.6
				c-0.6-1.2-1.7-1.3-3.2-0.5c-2.3,1.2-5.2,5.3-8.6,12c-1.8,3.2-3.3,5.7-4.3,7.3l3.2-31.4c0.2-1.1,0.1-2.3-0.3-3.4
				c-0.1-0.3-0.3-0.5-0.5-0.8l-8.4,4.5c0.5,0.9,0.7,2,0.6,3.1l-3.5,34.7c-0.2,0.3-0.4,0.6-0.5,0.9c-0.3,1.3-0.6,2.3-0.8,3
				c-1,4.1-2.8,8-5.5,11.2c-0.6,0.9-1.4,1.7-2.4,2.3c-1.6,0.9-2.9,0.4-3.8-1.4c-1.2-2.3-1.4-6.3-0.4-12.1c1-5.7,2.6-9.2,4.8-10.4
				c1.2-0.6,2.2-0.2,3,1.3c0.2,0.4,0.4,0.6,0.5,0.5c0.4-0.6,0.8-1.3,1-2c0.3-0.6,0.4-1.2,0.2-1.9c-0.6-1.1-1.8-1.1-4-0.3
				c-1.6,0.6-3.2,1.4-4.5,2.4c-1.3,1-2.5,2-3.6,3.2c-1.5,1.6-2.8,3.3-4,5.2c-1.5,2.6-2.5,5.4-2.8,8.4c-0.1,0.7-0.1,1.4-0.2,2
				c-0.4,2.3-1,4.6-1.6,6.9c-1.3,4.6-2.7,7.3-4.2,8.1c-0.7,0.5-1.6,0.3-2-0.4c-0.1-0.1-0.1-0.2-0.2-0.4c-0.4-0.8-0.4-1.6-0.3-2.4
				c0.5-3.8,1.1-9.3,1.8-16.5c0.2-2.5,0.2-4.1-0.1-4.7l-0.5-0.9l-8.2,4.4c0.2,0.4,0.3,0.6,0.4,0.8c0.4,1.3,0.5,2.7,0.3,4
				c-0.7,6.6-1.1,10.5-1.3,11.7c-0.7,3.8-2,7.4-3.8,10.8c-0.4,0.9-1.1,1.8-2,2.3c-0.9,0.5-1.5,0.3-2-0.5s-0.4-2.7,0-5.8
				c0.7-6.3,1.2-11.1,1.5-14.3c0.3-1.4,0.1-2.8-0.4-4.2l-0.4-0.7l-8.4,4.5c0.2,0.2,0.5,0.4,0.6,0.7c0.4,1.1,0.4,2.3,0.2,3.4
				l-1.4,13.7c-0.3,3.2-0.2,5.3,0.5,6.5c0.6,1.2,1.7,2,3.1,2.2c1.4,0.2,2.8-0.1,4-0.8c3.5-1.9,6.3-6.4,8.3-13.6c0,1.4,0.3,2.7,0.9,4
				c0.6,1.2,1.8,2,3.2,2.1c1.3,0.1,2.7-0.3,3.8-0.9c2.4-1.3,4.2-3.4,5.3-5.9c1.4-3.4,2.5-6.8,3.3-10.4c0.2,1,0.5,2,1,2.9
				c2.1,3.8,5.3,4.6,9.6,2.2c3.5-1.8,6.4-4.5,8.5-7.8c0.7-1.3,1.4-2.7,1.8-4.2c0.4-1.1,0.7-2.1,1-3.1l-1,9.5l8.3-4.4l1.1-11.3
				c0.2-2.1,0.8-4.1,1.6-6c0.8-1.9,2.2-3.5,4-4.6c1-0.5,1.7-0.4,2.2,0.4c0.6,1.2,0.7,3.2,0.2,6.2c-0.5,2.9-0.4,4.9,0.1,5.9
				c0.7,1.4,2.1,2.2,3.6,2.2c1.5,0.1,3-0.2,4.3-0.9c3.1-1.7,5.6-5.8,7.4-12.5c1.3-5.1,2.2-10.3,2.7-15.5c0.2-1.8,0.4-3.7,0.7-5.5
				c0.9,1.3,1.7,2.6,2.4,4c2,3.9,3,8.3,2.9,12.7c0,4.5-1,7.2-3,8.3c-0.5,0.2-1,0.3-1.5,0.1c-0.5-0.1-0.9-0.5-1.2-1
				c-0.2-0.4-0.3-0.8-0.3-1.2c0-0.3-0.1-0.7-0.2-1c-0.2-0.3-0.4-0.4-0.6-0.3c-0.7,0.4-1.2,1.1-1.4,1.9c-0.3,0.8-0.3,1.6,0.1,2.4
				c0.9,1.7,3.1,1.6,6.6-0.3c4.2-2.3,7.1-5.2,8.6-8.7C219.5,69.5,219.7,66.4,218.9,63.5z"/>
			<path id="Path_11_12_" class="st1" d="M133.8,63.8c-0.2,0.7-0.5,1.4-1,2.1c-2,3.1-5.2,5.8-9.6,8.2c-3.2,1.6-6.5,2.9-9.9,3.8
				c-6.4,2-10.9,3.7-13.6,5.1c-5.7,3.2-10.1,8.4-12.1,14.6c-1.2,3.9,4.1,6.7,5.9,10c1.2,2.2-5,7.1-9.5,5.5
				c-4.4-1.8-3.9-6.8-1.6-12.9c2-5.3,5.1-10.1,9.2-14.1c3.4-3.5,7.3-6.4,11.6-8.8c3.4-1.9,7.1-3.4,10.8-4.6
				c7.8-2.3,12.5-3.9,14.4-4.9c1.4-0.7,2.7-1.7,3.8-2.9c0.3-0.5,0.7-0.9,1.1-1.2C133.4,63.5,133.7,63.5,133.8,63.8
				C133.8,63.7,133.8,63.7,133.8,63.8z M113.9,81.7c0.1,0.2,0.1,0.5,0,0.7c-1,1.9-1.6,4-1.9,6.1c-0.3,3.2-0.4,6.4-0.1,9.5
				c0.2,3.7,0.4,7.6,0.4,11.5c0,7.3-1.2,13.4-3.4,18.2c-1.8,3.6-4.2,6.8-7.1,9.5c-2.8,2.8-6.1,5.3-9.6,7.2c-2.3,1.3-4.8,2.1-7.4,2.5
				c-3.2,0.4-5.5-0.5-6.6-2.7c-0.6-1.1-0.8-2.4-0.6-3.6c0.2-1.2,1-2.2,2.1-2.8c0.8-0.4,1.7-0.6,2.6-0.4c0.9,0.1,1.7,0.6,2.1,1.4
				c0.4,0.7,0.2,1.2-0.3,1.5l-0.3,0.2c-0.8,0.3-1.2,1.1-0.9,1.9c0,0.1,0.1,0.3,0.2,0.4c0.7,1.3,2,1.8,4,1.7c1.6-0.1,3.1-0.5,4.5-1.3
				c3.2-1.6,5.8-4.1,7.5-7.2c1.9-4,3-8.3,3.3-12.8c0.3-2.6,0.5-7,0.6-13.3c0-6.5,1.3-12.8,3.8-18.8c1.5-3.4,3.6-6.5,6.4-9.1
				c0.1-0.2,0.3-0.3,0.5-0.4C113.7,81.5,113.8,81.5,113.9,81.7L113.9,81.7z"/>
		</g>
	</g>
</g>
</svg>
