<svg id="Layer_2" data-name="Layer 2" xmlns="http://www.w3.org/2000/svg" viewBox="0 0 200 192.81"><defs><style>.cls-1{fill:#da291c;}</style></defs><path class="cls-1" d="M39.35,52.28a17.07,17.07,0,1,1,17,17A17.08,17.08,0,0,1,39.35,52.28Z"/><path class="cls-1" d="M139.62,77.24A16.32,16.32,0,1,1,155.8,61,16.36,16.36,0,0,1,139.62,77.24Z"/><path class="cls-1" d="M192.14,29.67C181.18,8.89,163.35-1.28,140.57.26,124,1.38,110.38,9.88,99.93,25.53l-.77-1.14C87.93,7.88,70.06-1.19,51.36.13c-19,1.33-35.7,13.07-44.71,31.4A63.28,63.28,0,0,0,1.58,73.81a66.58,66.58,0,0,0,23.21,37c4,3.27,8.07,6.52,12,9.67,23.46,18.64,45.62,36.26,59.32,65.33l3.31,7.05,3.76-6.83c11.7-21.25,24.23-36.86,39.45-49.14,3.44-2.78,7-5.55,10.46-8.23,6.3-4.89,12.82-10,19-15.37,6-5.24,12.74-11.48,17.57-19.24C202.55,73.29,203.4,51.05,192.14,29.67Zm-164.53,73V96.6H34c.05,1.12.14,2.09.14,3.05v8.44q-2.16-1.73-4.29-3.47C29.07,104,28.33,103.36,27.61,102.71Zm72.32,73A141.17,141.17,0,0,0,79,147V96.57H85.3v4q0,22.46,0,44.92a23.59,23.59,0,0,0,.34,4.6,6.25,6.25,0,0,0,6,5.17,6,6,0,0,0,6.3-4.12,6.87,6.87,0,0,0,1.73-.13c3.17-.62,4.63-3,5.49-5.86q5.56-18.87,11.2-37.73c1.3-4.39,1.38-4.44,6.46-3.44-6.18,21.48-12.35,43-18.61,64.72Q102.06,172.09,99.93,175.69Zm56.34-71.78c5.44-.85,5.44-.85,6.86,3.86.22.72.43,1.44.65,2.15q-2.31,2-4.65,3.84Q157.71,108.84,156.27,103.91Zm26.65-14.1a59.49,59.49,0,0,1-8.16,10.09c-.4-1.32-.8-2.64-1.21-4A21.4,21.4,0,0,0,153.24,80.8c-9.14-.11-18.29-.13-27.44,0a20.54,20.54,0,0,0-19.67,14.9q-3.73,12-7.37,24.13,0-12.1-.06-24.22c-.1-13.24-9.87-22.8-23.12-22.84-12.55,0-25.1,0-37.65,0-11.33,0-19.45,5.68-22.44,15.09A55.54,55.54,0,0,1,13.78,35c7.75-15.76,22-25.85,38.14-27,1-.07,2-.11,3-.11,14.76,0,28.67,7.67,37.68,20.92.84,1.24,1.66,2.5,2.6,4l1.51,2.32,3.58,5.46,3.21-5.68C113.05,18,125.35,9.26,141.11,8.19c19.69-1.34,34.48,7.14,44,25.19C195.13,52.38,194.39,71.37,182.92,89.81Z"/></svg>