<svg xmlns="http://www.w3.org/2000/svg" viewBox="0 0 169.18 108.26"><defs><style>.cls-1{fill:#da291c;}</style></defs><g id="Layer_1" data-name="Layer 1"><g id="medball2"><path class="cls-1" d="M153.08,48.78c.31-3,1.87-6.84.56-8.69-1.12-1.59-12.41.18-14.41.9-12.63,10-16.55,9.46-27.67-3.83,1.37-.93,4-2.28,3.91-2.71-1.31-4.06-2.11-9.24-5-11.54S101,19.34,98.3,21.09C85.39,29.5,71.47,31.76,56.42,32.4c-12,.51-20.11,14-17.37,25.62,2.32,9.79,4.71,19.57,7.27,30.21-12.47,0-23.86-.14-35.24,0C4.53,88.39-.24,91.54,0,98.57.24,105,4.68,108,11,108c15.63,0,31.25.19,46.88,0,8.38-.13,11.91-4.57,10.58-12.92-.83-5.22-2.29-10.34-3.46-15.51l2.38,1.66,25-22.88c9.49,3.42,14.23.95,13.71-8.53l7.86,6c-2.53,2-6.11,3.42-7.42,6-6.69,13.15-2.78,29.57,8.69,39a33.15,33.15,0,0,0,40.81,1C174.82,87.62,173.13,57.58,153.08,48.78Z"/><path class="cls-1" d="M130.94,9.86l-4.55.5c-3.75.69-7.86.64-11.19,2.22C102.7,18.52,91,16.53,85.93,7a4.39,4.39,0,0,1-.64-2.25c6.43-.46,12.75-.58,19-1.45C109.52,2.53,114.7-.16,119.86,0,125.32.18,131.57,1.77,130.94,9.86Z"/><circle class="cls-1" cx="134.49" cy="24.65" r="15.5"/></g></g></svg>