<svg xmlns="http://www.w3.org/2000/svg" viewBox="0 0 184.11 128.55"><defs><style>.cls-1{fill:#da291c;}</style></defs><g id="Layer_1" data-name="Layer 1"><g id="medball3"><path class="cls-1" d="M110.45,66.11c2.8,4.68,7,5,11.92,4.44,10.09-1.18,20.26-1.67,30.37-2.68,5.59-.56,8.8-4.17,8.18-8.53s-4.44-7-10.06-6.52c-8.9.78-17.79,1.64-26.69,2.45-.7.06-1.41,0-2.41,0,9.06-9,33.36-11.57,49.21,3a40.37,40.37,0,0,1-52.71,61.12C102.14,106.25,98.38,81.47,110.45,66.11Z"/><path class="cls-1" d="M119.87,68.75c-3.65,1-6.37-1.29-8.64-5.51-4.09-7.59-8.66-14.91-13-22.34-2.72-4.63-2.51-7.82.63-9.74s6.15-.7,8.84,3.88c3.59,6.11,7.25,12.18,10.62,18.41,1.57,2.9,3.33,4.27,6.84,3.85,8.57-1,17.19-1.62,25.78-2.43,4.69-.44,7.66,1.32,8.07,4.86.39,3.38-2.2,5.74-7,6.17C141.73,66.85,131.44,67.73,119.87,68.75Z"/><path class="cls-1" d="M111.13,32.52S107.3,25.37,96.67,29,65,46.08,48.53,53.09C40.19,56.64,38,63.41,39.84,72.59S42.54,91,43.91,100.7c-12.26,0-23.65-.06-35,0A8.67,8.67,0,0,0,0,109.4,8.8,8.8,0,0,0,9,118q21.51.1,43,0c7.74-.05,10.92-3.72,10.11-11.39-.65-6.17-1.37-12.33-2.15-19.23,7.64,4.12,14.49,3.12,19.42-2.27,4.49-4.91,7.38-11.28,11.25-17.43,1.12.21,3.21.72,5.34,1,4.51.54,6.94-2.4,9.36-5.59,2.22-2.93.57-5.13-.83-7.52q-4-6.78-7.89-13.58c-3-5.15-2.32-9.45,2-11.73,3.65-1.91,7.33.28,9.39,3a87.21,87.21,0,0,1,5.06,8.21l1.09-3.28C114.16,37.44,111.13,32.52,111.13,32.52Z"/><path class="cls-1" d="M134.28,11.19c1.66-4.35,1.67-8.07-2-10.09a10.34,10.34,0,0,0-7.9-.56c-4.47,1.83-4.25,6.11-3.35,10.08a15.88,15.88,0,1,0,13.29.57Z"/></g></g></svg>