<svg id="Layer_1" data-name="Layer 1" xmlns="http://www.w3.org/2000/svg" viewBox="0 0 81.97 141.78"><defs><style>.cls-1{fill:#fff;}</style></defs><g id="medball4"><path class="cls-1" d="M29.1,33.55c-2.33,0-3.85,0-5.37,0-4.26.16-7,2.76-7.14,6.64a7.15,7.15,0,0,0,7.18,7.5c4.35.14,8.7.06,13.05,0,2.36,0,4.59-.33,5.64,2.73s1.73,6.11-.82,8.86l-3.29,3.53c9.32,13,9.78,14.48,7.49,23.94,3.78.69,7.54,1.46,11.33,2,3.29.49,6.07,1.49,7.61,4.79,5.45,11.7,11,23.33,16.43,35a7,7,0,0,1-3.58,9.73c-3.75,1.68-7.62.24-9.62-3.9-4.37-9.09-8.75-18.19-12.78-27.43-1.41-3.23-3.35-4.49-6.73-4.9Q34,100.37,19.58,98c-7-1.14-9.7-5-8.87-12.2,1.08-9.32,2.34-18.63,3.32-28,.34-3.25,0-6.57.17-9.85A48.9,48.9,0,0,1,15,38.93C16.33,33.21,22.78,30.61,29.1,33.55Z"/><path class="cls-1" d="M11.51,96.17c4,3.86,9.1,3.75,13.91,4.5,7.42,1.15,14.88,2.09,22.33,3a5,5,0,0,1,4.33,3.47c5.06,12.2-.17,25.85-12.65,31.58-10.89,5-21.43,3.79-30.72-3.86C-4,124.47-2.61,105.56,11.51,96.17Z"/><path class="cls-1" d="M47.79,35.12c7.75,0,15.5,0,23.26,0,4.15,0,6.5,1.86,6.66,5.15s-2.33,5.79-6.48,5.8Q47.8,46.13,24.36,46c-3.87,0-6.38-2.52-6.19-5.68s2.59-5.14,6.35-5.15C32.28,35.1,40,35.12,47.79,35.12Z"/><path class="cls-1" d="M18.39,4.58C16.2,1,13.55-1,10.09.52A9.32,9.32,0,0,0,5.37,5.84c-1.13,4.19,2,6.37,5.36,7.9a14.26,14.26,0,1,0,7.66-9.16Z"/></g></svg>