<svg xmlns="http://www.w3.org/2000/svg" viewBox="0 0 162.1 117.69"><defs><style>.cls-1{fill:#da291c;}</style></defs><g id="Layer_1" data-name="Layer 1"><g id="nursebed"><path class="cls-1" d="M140.24,103.61H22.6a2.16,2.16,0,0,1-2.16-2.16c0-6.61-.15-13,.2-19.38.06-1.11,2.67-2.89,4.19-3,5.67-.37,11.37-.19,17.06-.19l85.36,0c4,0,7.94-.17,11.86.2,1.18.12,3.11,1.77,3.15,2.77.25,6.42.17,12.85.15,19.55A2.17,2.17,0,0,1,140.24,103.61Z"/><path class="cls-1" d="M81.63,105.27c18.76,0,37.51-.13,56.26.1,4.73,0,6.14-1.6,6.3-6.18a142.7,142.7,0,0,1,2.17-18.4c.19-1.16,2-2.7,3.29-2.88a24.71,24.71,0,0,1,8.79,0c1.42.31,3.42,2.5,3.45,3.89.29,10.52.24,21.06,0,31.58,0,1.23-1.81,3.55-2.5,3.45-4.67-.68-10.61,3.48-13.89-3.44-.42-.89-3-1.08-4.53-1.09q-60.06-.07-120.11.07c-1.65,0-3.32,1.51-4.94,2.39-1.36.74-2.58,2.11-4,2.3C1.13,118.65.15,117.72.15,106.82.15,87.66.4,68.5,0,49.34c-.12-6.26,3.14-6.23,7.49-6.08s9.23-1.2,8.71,6.19a145.08,145.08,0,0,0,0,19.78c.72,11,1.74,21.9,3.13,32.79.17,1.3,3.52,3.09,5.42,3.11C43.7,105.37,62.67,105.27,81.63,105.27Z"/><path class="cls-1" d="M91.58,52.21l-16-9c-.77-11.78,24-20.53,32.38-11.68a77.88,77.88,0,0,1,8.11,9.6c.92,1.36.34,3.73.44,5.64a22.89,22.89,0,0,1-5,.12C103.85,45.5,98,49.7,91.58,52.21Z"/><path class="cls-1" d="M25.07,74.22c0-3.88.72-7.76-.15-11.24-1.68-6.72-4.21-13.14,3.9-17.62.8-.44.85-2.26,1.22-3.46,1.48-4.8,4.79-7.53,9.76-7.41s9.11,3.07,9.13,7.86A15.32,15.32,0,0,1,44,52.77c-3.75,3.22-8.36,1.6-11.84-2a5,5,0,0,0-3.31-1.86c.86,2.7,1.6,5.45,2.6,8.1C34.87,66.07,31.84,73,25.07,74.22Z"/><path class="cls-1" d="M136.54,65.35c-7.95-5.13-15.7-10.59-23.93-15.21-2.38-1.34-6.51-1.2-9.14-.09-4.9,2.08-9.29,5.37-13.94,8.19-5.8-12.72-11.89-14.13-26.32-7.41-3.09-1-6.57-2.31-9.22-1.34-5.91,2.17-11.58,5.32-13,12.43-.05.27,1.47.86,2.25,1.3-.91,2.31-1.78,4.64-2.75,6.92-2.33,5.55-1.37,7.17,4.67,7.24,8.13.1,16.26.19,24.39-.07,2.31-.08,4.59-1.38,6.88-2.12,3.81,4.79,7.79.31,10.87-.83A39.78,39.78,0,0,0,99.9,67.21c5.15-4.52,7.76-6.12,11.87-3.21,5.82,4.13,11.94,7.85,18,11.71,3.54,2.27,7.28,3.2,9.94-.9S140.16,67.68,136.54,65.35ZM48.16,71l2.64-5.33c-.77,3.43,1,4.14,4,4.22,6.68.18,13.36.72,20,1.11Z"/><path class="cls-1" d="M125.55,75.42c-1.5,1-2.16,1.79-2.82,1.79-11.33.08-22.66.06-34.55-.94,6-3.78,12.09-7.6,18.21-11.27a3.14,3.14,0,0,1,3,0C114.63,68.28,119.81,71.7,125.55,75.42Z"/><path class="cls-1" d="M95.05,9C96,7.35,98,5.29,97.53,4.11c-.65-1.78-3-4.13-4.6-4.11-2.36,0-4.69,1.93-8.27,3.61l6.76,2.95c-1.67-.07-3.35-.26-5-.2-5.32.21-9.36,3.18-9.64,8.12A16.21,16.21,0,0,0,81,25.3c3.28,3.45,8.21,3,12.12,0,4.08-3.08,5.5-7.27,3.63-12.25C96.19,11.69,95.6,10.36,95.05,9Z"/></g></g></svg>