<svg id="Layer_1" data-name="Layer 1" xmlns="http://www.w3.org/2000/svg" viewBox="0 0 124.68 176.23"><defs><style>.cls-1{fill:#fff;}</style></defs><g id="backPain"><path class="cls-1" d="M124.68,11.22a13.32,13.32,0,0,1-3.31,1c-3.72.13-7.44,0-11.39,0a9.43,9.43,0,0,1,.63-1.33A11.84,11.84,0,0,1,119,6.05c2.47-.34,4.51.35,5.7,2.75Z"/><path class="cls-1" d="M69.68,73.76A7.83,7.83,0,0,0,67,79q-.87,15.16-1.72,30.34c-.37,6.72-.7,13.45-1,20.18a3.77,3.77,0,0,1-.16.62A6.48,6.48,0,0,1,63,130c-14.22-4.94-28.45-9.86-42.64-14.87-3.28-1.16-6.44-2.65-9.87-4.07,4.72-7.29,9-14.28,13.67-21,2.44-3.53,5.48-6.65,8.25-10a2.49,2.49,0,0,1,2.84-.87,6.49,6.49,0,0,0,7.89-6,6.24,6.24,0,0,1,1.79-3.93,33,33,0,0,0,7.79-13.47c.15-.55.35-1.08.59-1.78,3.21.79,6.36,1.6,9.53,2.35a6.77,6.77,0,0,0,7.52-2.92,6.38,6.38,0,0,0-.59-7.7,10.85,10.85,0,0,0-3.89-2.35A47,47,0,0,0,60.46,42c2.13-2.33,6.65-3.32,10.3-2.32a13.37,13.37,0,0,1,7.91,5.77,7.68,7.68,0,0,1,1,3.91q0,12.89-.18,25.75a3.48,3.48,0,0,0,1.45,3c5.75,4.7,11.43,9.48,17.17,14.19,1.68,1.38,2.73,3,2.3,5.23a4.9,4.9,0,0,1-8.08,2.78c-3.78-3-7.47-6.16-11.19-9.24-3-2.46-5.89-5-8.92-7.38a6.09,6.09,0,0,1-2.54-5.52C69.75,76.89,69.68,75.52,69.68,73.76Z"/><path class="cls-1" d="M70.71,26.73A16.28,16.28,0,1,1,87,43.05,16.18,16.18,0,0,1,70.71,26.73Zm14,8.53,1.23,1.35a41.56,41.56,0,0,1,6.11-2,40,40,0,0,1,6.32-.07l.47-1.63A15.47,15.47,0,0,0,84.71,35.26Z"/><path class="cls-1" d="M44.35,126c3.92,1.41,7.81,2.78,11.68,4.19,3.4,1.23,3.42,1.25,3.49,4.83.22,11.17.44,22.33.59,33.5a7.08,7.08,0,0,1-4.63,7,7.19,7.19,0,0,1-8-1.4A7.3,7.3,0,0,1,45,168.67q-.43-21-.77-41.95A3.62,3.62,0,0,1,44.35,126Z"/><path class="cls-1" d="M43.7,50c-.54,5.39-1.06,10.6-1.57,15.8-.25,2.47-.44,4.94-.74,7.39A4.92,4.92,0,0,1,36,77.59a4.85,4.85,0,0,1-4.36-5.45Q33,57.77,34.48,43.43A4.85,4.85,0,0,1,40.75,39q12.39,3,24.77,6.11a4.91,4.91,0,0,1,3.88,6.11c-.66,2.7-3.33,4.17-6.4,3.43-6.14-1.49-12.27-3-18.41-4.54C44.38,50.06,44.15,50,43.7,50Z"/><path class="cls-1" d="M39.86,34.09C45.4,36,47.58,35.44,51.07,31c1.69-2.16,3-4.59,4.54-6.91,2.56-3.95,5.55-7.48,10.42-8.43,2.06-.4,4.25-.06,6.4-.06-1,2.09-1.8,3.91-2.64,5.72a1.63,1.63,0,0,1-.33.58c-3.81,2.92-5.55,7.45-8.58,11a36.93,36.93,0,0,1-5.68,5.43,6.65,6.65,0,0,1-6.24,1c-2-.62-4-1-6-1.5C41.17,37.32,40.42,36,39.86,34.09Z"/><path class="cls-1" d="M25.09,72.46l-12-4.69.37,5.35L0,69l.73-2.48,10.85,4v-6l13.75,7.3Z"/><path class="cls-1" d="M102,9.32c-1-2.42.31-7.21,3.05-8.85a4.25,4.25,0,0,1,3.17-.29c1.72.57,2,1.9.65,3.15C106.61,5.44,104.2,7.4,102,9.32Z"/><path class="cls-1" d="M28,68.61,21.2,60.13l-2,4.05-8.25-8.73L12.61,54l6.23,7.53,2.52-4.39,7.05,11.17Z"/><path class="cls-1" d="M17.44,82.82,5.92,84.59l-.46-2.1,9.6-.87-2-4.48,12.71.54,0,.47-10.5.8Z"/><path class="cls-1" d="M109.18,22a7.77,7.77,0,0,1,7.9-2.66c.48.15,1.17.37,1.31.73a7.48,7.48,0,0,1,.6,3c0,.24-1.46.69-2.17.57C114.3,23.16,111.81,22.53,109.18,22Z"/><path class="cls-1" d="M21.81,45.6a7.67,7.67,0,0,1,6-7.68c.44-.1,1,.24,1.47.37-.37.36-.68.87-1.12,1.05-3.83,1.53-4.83,3-4.75,7.19a4.32,4.32,0,0,1-.53,1.4,6.09,6.09,0,0,1-.92-1.2A3.75,3.75,0,0,1,21.81,45.6Z"/><path class="cls-1" d="M25.49,46.14a5.06,5.06,0,0,1,3.63-5.08,3.42,3.42,0,0,1,1.37.22c-.23.37-.39.94-.72,1.08-2.14.89-3.16,2.32-2.68,4.7.07.33-.31.74-.48,1.11-.33-.3-.78-.55-1-.92A3.08,3.08,0,0,1,25.49,46.14Z"/></g></svg>