<svg id="Layer_2" data-name="Layer 2" xmlns="http://www.w3.org/2000/svg" viewBox="0 0 200 200.09"><defs><style>.cls-1{fill:#da291c;}</style></defs><path class="cls-1" d="M146.8,99c-.35,5.78-.25,9.82-.91,13.74-1,5.69-4.83,8.7-10.51,8.58-5.35-.12-8.9-3.13-9.94-8.46a30.77,30.77,0,0,1-.39-7.79c.3-4.53-1.69-5.87-6.38-4.88,2.53,23.69,4.93,47.23,7.79,70.71.19,1.57,3.81,3.77,5.92,3.86,9.23.42,18.5,0,27.74.26,4.53.13,6.33-1.49,6.68-6,.7-9,1.88-17.93,2.82-26.89,1.48-14.08,2.93-28.16,4.49-43.15ZM153,153.37A10.52,10.52,0,1,1,164.06,143,10.58,10.58,0,0,1,153,153.37Z"/><path class="cls-1" d="M53.53,102.15a80.79,80.79,0,0,1-.07,9.66c-.67,6.06-4.44,9.5-10.46,9.48s-9.6-3.6-10.42-9.59c-.32-2.34.32-4.9-.39-7.06s-2.56-3.79-3.91-5.66l-2.2,1.28c2.51,23.5,4.9,47,7.75,70.48.2,1.6,3.72,3.89,5.79,4,9.23.43,18.5-.06,27.73.29,5.05.19,6.51-2,6.92-6.56,1.18-13,2.75-25.93,4.11-38.9,1-10,2-20,3-30C71.7,101.21,62.46,94.06,53.53,102.15ZM61,153.36a10.5,10.5,0,1,1,10.51-10.22A10.59,10.59,0,0,1,61,153.36Z"/><path class="cls-1" d="M23.84,146.32c1.06,10.46,1.84,18.19,2.82,27.94-4.92-3.1-8.29-5.46-11.89-7.38-1.75-.93-3.93-1-5.91-1.53.42,2.24.08,5.37,1.43,6.56a45.84,45.84,0,0,0,11.28,7.28c21.4,9.58,44.24,12.44,67.35,13.29,27.42,1,54.66-.68,80.82-9.86,6.83-2.39,13.23-6.28,19.4-10.16,1.52-1,1.38-4.57,2-7-2.17.64-4.49,1-6.46,2-3.29,1.69-6.34,3.83-11.2,6.84,1-9.76,1.72-17.57,2.61-26.72,8.71,3.55,16.33,6.92,21.54,14.12,3.89,5.39,2.8,11.08-2,14.59-6.6,4.83-13.76,9.55-21.42,12.15-34.55,11.76-70.22,14.15-106.17,9.19-15.64-2.16-31.09-6.4-46.3-10.8C15.63,185.08,9.81,181,4.84,176.76c-6.31-5.34-6.46-11.82-.4-17.22C9.74,154.8,16.25,151.4,23.84,146.32Z"/><path class="cls-1" d="M21.78,82.64c-.19-6.55,5.51-12.15,12-10.66,4.69,1.08,7.16-.27,10.35-3.41A13.54,13.54,0,0,1,66.52,73c1.8,4.24,3.32,6.57,8.55,6.15,2.1-.16,5.56,2.79,6.39,5.06.71,1.9-.83,6.1-2.59,7.07-2.11,1.16-6.38,1-8.18-.42-3.49-2.83-5.92-2.8-9.34-.31-1.81,1.31-4.5,2.48-6.57,2.18-7.89-1.13-8.67,3.32-8.19,9.3.17,2.11.48,4.41-.14,6.35-.67,2.09-2.35,3.85-3.58,5.76-1.13-1.79-2.83-3.47-3.24-5.42a31.69,31.69,0,0,1-.14-8.49c.34-5.16-1-7.82-7.09-7.53A10.06,10.06,0,0,1,21.78,82.64Z"/><path class="cls-1" d="M114.37,82.44c-.11-6.73,5.82-11.22,13-10.69a12.2,12.2,0,0,0,8.28-2.52c8.38-7.56,19.62-5.81,23.84,4.54,1.58,3.86,3.09,5.56,7.6,5.4,2.33-.09,6,2.35,6.8,4.48s-.62,6.43-2.48,7.69-6.34,1-8.12-.47c-3.5-2.88-5.93-2.73-9.33-.28-1.82,1.31-4.48,2.44-6.57,2.17-7.8-1-8.69,3.32-8.22,9.35a34.41,34.41,0,0,1-.26,8.49c-.23,1.28-1.86,2.32-2.85,3.47-1.27-1.13-3.39-2.11-3.63-3.42a42.5,42.5,0,0,1-.29-9.9c.31-5.32-.72-8.41-7.32-8C118.74,93.07,114.45,88.11,114.37,82.44Z"/><path class="cls-1" d="M92.75,15h14.57c.7,9.54,1,18.77,2.25,27.87.41,3.05,2.75,6,4.75,8.62,3,3.82,6.39,7.27,9.44,10.68-14.71,14.08-31.75,8-48.31,9.62.08-9,4-14.88,10-20.17a16.33,16.33,0,0,0,5.14-9.07C91.79,33.7,92.05,24.67,92.75,15Zm7.51,42.46c-.78-1-1.43-2.43-1.86-2.37-3.07.45-7.07.26-8.88,2.11-2,2.1-2.11,6.13-3,9.32,1.94-.06,4.26.54,5.73-.32C94.39,65,96,62.68,97.76,60.77,98.65,59.8,99.36,58.68,100.26,57.49Z"/><path class="cls-1" d="M83.41,149.36c1.36-13.1,2.52-25.59,4.14-38,.19-1.52,2.79-2.74,4.3-4.07.14-.12.46,0,.7,0,20-1.19,20-1.19,21.74,18.85.68,7.54,1.55,15.06,2.41,23.27Z"/><path class="cls-1" d="M83.06,157.36h33.68c4.85,9.07-3.64,26.64,17.12,25.32-22.69,3.86-44.85,3.6-67.76.25C85.93,183.65,79.38,167.59,83.06,157.36Z"/><path class="cls-1" d="M89,99.74V79.36h17.24c1.8,6.51,3.62,13.13,5.61,20.38Z"/><path class="cls-1" d="M110.05,7.12h-20C88.87,2.87,89.89.66,94.8.34,108.51-.57,110,0,110.05,7.12Z"/></svg>