<svg xmlns="http://www.w3.org/2000/svg" viewBox="0 0 48 48"><defs><style>.cls-1{fill:#ff312e;}.cls-2{fill:#fff;}</style></defs><title>social2</title><g id="Page_1_-_Home" data-name="Page 1 - Home"><g id="Footer"><path class="cls-1" d="M48,1a1,1,0,0,0-1-1H24A24,24,0,1,0,48,24Z"/><g id="Lozenge"><path class="cls-2" d="M38.7,19.74a6.91,6.91,0,0,0-1.19-3.1,4.2,4.2,0,0,0-3-1.32C30.3,15,24,15,24,15h0s-6.29,0-10.49.32a4.2,4.2,0,0,0-3,1.32,6.91,6.91,0,0,0-1.19,3.1A49.57,49.57,0,0,0,9,24.81v2.37a49.25,49.25,0,0,0,.3,5.06,6.94,6.94,0,0,0,1.19,3.11,5,5,0,0,0,3.31,1.33C16.2,36.92,24,37,24,37s6.3,0,10.5-.33a4.2,4.2,0,0,0,3-1.32,6.94,6.94,0,0,0,1.19-3.11,49.25,49.25,0,0,0,.3-5.06V24.81A49.57,49.57,0,0,0,38.7,19.74ZM20.9,30.06V21.27L29,25.68Z"/></g></g></g></svg>