<svg id="Layer_1" data-name="Layer 1" xmlns="http://www.w3.org/2000/svg" viewBox="0 0 90.06 145.86"><defs><style>.cls-1{fill:#fff;}</style></defs><g id="squat"><path class="cls-1" d="M49.21,105.73c-7.47,2.22-13.63,4-19.75,5.88-7.95,2.47-15.68,3.86-21.83-3.81-6.45-8.06-7.74-20-3-28.35,1.87-3.3,4-6.43,5.94-9.71a43.88,43.88,0,0,0,6.1-25.08c-.17-2.82-.46-5.91.49-8.44s3.22-4.53,5.17-6.52c.87-.88,2.41-1.07,3.56-1.72,7.88-4.42,12-4.36,17.42,3,4.84,6.61,8.37,14.3,11.68,21.86,1.94,4.42-.13,7.08-6.73,11-1.91-6.22-3.74-12.29-5.65-18.34a31.39,31.39,0,0,0-2.35-6.38c-2.43-4.22-6.41-5.36-10.81-3.85s-6.65,5.14-5.53,9.42c3,11.37,6.38,22.64,10,33.81,1.39,4.26,5.27,5.73,9.66,5.55,4-.16,8-.59,12-.46C64.71,83.94,74,84,80,93.83c-7.74,15-15.73,30.94-24.12,46.62-2.9,5.41-9.2,6.77-14.36,4a10.6,10.6,0,0,1-4.67-14.16C40.57,122.45,44.66,114.76,49.21,105.73Z"/><path class="cls-1" d="M90.06,85c-1.11,1.33-2.37,4.15-4.4,4.91s-6,.34-7.1-1.1c-4.73-6.09-11.31-6.5-17.91-6.88A154.32,154.32,0,0,0,44.13,82c-5,.26-7.92-1.83-9.29-6.5-2.78-9.46-5.49-18.94-8.42-28.35-1.49-4.78-.42-8.3,4.33-10.14,3.93-1.52,7.44.87,9.13,6.2C42.05,50.12,44.12,57,46,64c.78,2.92,2.24,3.52,5.19,3.78,9,.8,18.12,1.6,26.91,3.63C84.09,72.78,89,76.8,90.06,85Z"/><path class="cls-1" d="M78.26,18.2a17.36,17.36,0,0,1-34.72.33,17.36,17.36,0,1,1,34.72-.33Z"/><path class="cls-1" d="M0,19.7c6.4,3.84,11.12,2,15.22-2,3.52-3.43,6.63-7.29,10.1-10.78,7.57-7.61,15.2-9,24.74-3.79-3.63,2.05-6.76,3.56-9.58,5.53-1.27.89-2,2.65-2.84,4.07-4.93,8-10.9,14.61-20.72,16.35C9.18,30.44,2.9,27.26,0,19.7Z"/></g></svg>