<svg id="Layer_1" data-name="Layer 1" xmlns="http://www.w3.org/2000/svg" viewBox="0 0 69.85 198.32"><defs><style>.cls-1{fill:#fff;}</style></defs><g id="stand"><path class="cls-1" d="M24.17,143.53H15.45c-.36-3.79-.92-7.49-1-11.19a111.72,111.72,0,0,1,3.71-30.9c3.58-14.19,1.33-27.86-5.38-40.77a12.75,12.75,0,0,1,3.78-16.45c5.34-3.7,12.92-2.77,16.8,2.45a105.2,105.2,0,0,1,9.29,14.19A62.21,62.21,0,0,0,57.89,79.7a32.52,32.52,0,0,1,4.39,4c-6.27.22-11.53-2.53-16.34-7.93-6-6.77-8.92-15-11-23.62a9.24,9.24,0,0,0-8.11-7.31c-6.39-.55-11.47,4.76-10.11,11,2.9,13.38,8.14,25.65,18.24,35.35A40.7,40.7,0,0,0,54.61,102c6.6,1.44,9.74.09,13.31-5.92.38,1.48.74,2.7,1,4s.45,2.51.59,3.77.3,2.68.33,4c.33,13.6-4.21,25.1-14.57,34.16a5.7,5.7,0,0,1-4.42,1.56c-2-.12-4.1,0-6.45,0-.19,3.32-.54,6.53-.54,9.75q0,18,.19,35.91a8.72,8.72,0,0,1-8,9.11,8.31,8.31,0,0,1-9.27-7.17q-1.59-15.65-2.58-31.34C23.89,154.48,24.17,149.15,24.17,143.53Z"/><path class="cls-1" d="M40.57,21.14c-.91,11.8-10.4,20.21-21.8,19.33A20.39,20.39,0,0,1,.06,18.87C.94,7.26,10.65-.87,22.51.07,32.84.89,41.37,10.84,40.57,21.14Z"/><path class="cls-1" d="M47,97.7c-11-5.14-18.25-14-23-24.87a128.75,128.75,0,0,1-5.73-17.29,7.46,7.46,0,0,1,5.47-9,7.82,7.82,0,0,1,9.58,5.27c1.64,5,3,10.05,5.07,14.84,2.77,6.5,6.94,12.12,13.19,15.69a36.68,36.68,0,0,0,8.68,3.19c3.49.94,5.9,3.32,6.3,6.86A7.6,7.6,0,0,1,62,100.31a9.16,9.16,0,0,1-3.89.62A51.94,51.94,0,0,1,47,97.7Z"/></g></svg>