<svg id="Layer_1" data-name="Layer 1" xmlns="http://www.w3.org/2000/svg" viewBox="0 0 94.89 160.37"><defs><style>.cls-1{fill:#fff;}</style></defs><g id="stool"><path class="cls-1" d="M17.66,98.22c1.83.13,3.45.55,5,.29A7.13,7.13,0,0,0,27.3,87.4c-1.73-2.61-3.43-5.26-5.37-7.72a7,7,0,0,1-1.36-5.84c.54-3.58.81-7.21,1.1-10.82A4.67,4.67,0,0,1,23,59.82c4.08-4.16,8.07-8.4,12.09-12.63a7.15,7.15,0,0,0-.18-10.34,7.24,7.24,0,0,0-10.36.45,6.34,6.34,0,0,1-1.07,1,7.66,7.66,0,0,1,4.32-4.43,15.51,15.51,0,0,1,11-.32,6.7,6.7,0,0,1,3,2.11c3.21,4.2,6.32,8.48,9.36,12.8a21.85,21.85,0,0,1,4.11,8.67,7.25,7.25,0,0,1-2.15,6.73c-1.34,1.37-2.63,2.79-3.92,4.17C57.82,76.28,62.76,85.27,57,97.19l7.92,1.25,4.9.79a7.88,7.88,0,0,1,6.3,5.06q6.73,16.39,13.41,32.81c1.53,3.77,3,7.55,4.61,11.32,1.91,4.58.09,9.43-4.24,11.25s-9.21-.15-11.12-4.82q-7.94-19.38-15.8-38.8a1.78,1.78,0,0,0-1.57-1.34c-2-.25-4-.59-6.07-.9-.05.79-.1,1.53-.15,2.4h-5.5c.94,7.1,1.85,14.06,2.78,21s1.86,13.93,2.82,21.1c-1.65,0-3.24,0-4.82-.05-.28,0-.7-.62-.76-1-.77-5.59-1.49-11.19-2.23-16.78q-1.59-11.85-3.2-23.7c0-.17-.07-.33-.11-.54H25c-1.87,14-3.72,27.92-5.59,42H14c1.86-14,3.71-27.9,5.57-42H14.13v-5.3H29C23.28,108.28,18.81,104.7,17.66,98.22Z"/><path class="cls-1" d="M17.78,5.35A15.52,15.52,0,0,1,26,.41c8.4-2,17.1,3.45,18.75,11.71C46.58,21.19,40.89,29.56,32,30.94a15.32,15.32,0,0,1-17.1-10.31,1.71,1.71,0,0,0-1.12-1c-3.6-.35-6.1-2.17-7.09-5.62a7.15,7.15,0,0,1,2.06-7.5c2.52-2.36,5.45-2.67,8.59-1.32C17.44,5.25,17.57,5.28,17.78,5.35Z"/><path class="cls-1" d="M11.93,68.58,20.47,81c1.67,2.43,3.36,4.85,5,7.3a5.22,5.22,0,1,1-8.62,5.86Q9,82.71,1.1,71.23a5.14,5.14,0,0,1,.46-6.87Q13.8,51.51,26.08,38.68a5.09,5.09,0,0,1,7.34-.47,5.18,5.18,0,0,1,.17,7.65c-5.49,5.8-11,11.56-16.52,17.34C15.38,65,13.68,66.75,11.93,68.58Z"/></g></svg>