<?xml version="1.0" encoding="utf-8"?>
<!-- Generator: Adobe Illustrator 24.1.1, SVG Export Plug-In . SVG Version: 6.00 Build 0)  -->
<svg version="1.1" id="Layer_1" xmlns="http://www.w3.org/2000/svg" xmlns:xlink="http://www.w3.org/1999/xlink" x="0px" y="0px"
	 viewBox="0 0 319 122.7" style="enable-background:new 0 0 319 122.7;" xml:space="preserve">
<style type="text/css">
	.st0{fill:#DA291C;}
</style>
<g id="logo" transform="translate(4 5)">
	<g transform="matrix(1, 0, 0, 1, -4, -5)">
		<path id="Path_9-2" class="st0" d="M315.9,71.2c-0.6-0.1-1.2-0.1-1.7,0c-1.3,0.2-2.6,0.6-3.9,0.8c-0.5,0.1-1,0.1-1.5,0.1l-0.1-0.3
			c3-1.9,6.6-2.3,9.5-4.2c-0.3-0.1-0.6-0.2-0.9-0.2c-2.6,0.3-5.2,0.6-7.8,1c-2.7,0.4-5.3,1.1-8,1.6c-0.5,0.1-1.1,0.2-1.4-0.1
			c-1.2-1.2-2.6-1-4.1-1c-0.4,0-0.8,0-1.2,0l0-0.3c0.9-0.3,1.7-0.6,2.6-0.9c2.6-0.9,5.3-1.7,7.9-2.7c0.8-0.3,1.5-0.8,2.2-1.4
			c0.8-0.8,0.7-1.4-0.3-1.8c-0.7-0.2-1.4-0.4-2.2-0.6c-0.8-0.2-1.6-0.4-2.4-0.5l0.3-0.2c-0.1-0.5-0.3-1-0.6-1.5
			c-0.4-0.4-0.8-0.8-1.2-1.1c-0.8-0.7-0.7-1.2,0.2-1.7c0.4-0.2,0.8-0.3,1.2-0.5c2.1-0.6,4.1-1.1,6.2-1.8c2.3-0.8,4.6-1.7,6.8-2.7
			c0.9-0.3,1.5-1,1.7-1.9c-1.3,0.4-2.5,0.9-3.7,1.2c-1.3,0.3-2.6,0.2-3.7-0.4c2.9-1.7,6.4-1.8,9.3-3.6c-0.5-0.2-1-0.3-1.6-0.3
			c-1.4,0.1-2.8,0.1-4.2,0.3c-5.9,0.8-11.8,2.4-17.9,2.1c-0.7-1.4-0.7-1.4,1.1-1.9c5.3-1.2,10.5-2.5,15.8-3.8
			c0.6-0.2,1.2-0.4,1.7-0.8c0.2-0.1,0.3-0.3,0.6-0.7c-0.8-0.1-1.6-0.1-2.5-0.1c-1.4,0.1-2.8,0.4-4.2,0.5c-3.5,0.1-7.1,0.1-10.6,0.2
			c-0.4-0.1-0.8-0.2-1.2-0.3l0-0.3c0.3-0.2,0.7-0.4,1-0.6c0.9-0.3,1.8-0.5,2.6-0.9c0.4-0.2,1-0.9,0.9-1.1c-0.5-1.1,0.3-1.1,0.9-1.3
			c2.1-0.6,4.3-1.3,6.4-1.9c0.5-0.2,0.9-0.4,1.3-0.7l-0.1-0.3c-0.4-0.1-0.8-0.1-1.2-0.1c-0.8,0-1.6,0.1-2.4,0.1
			c-0.8,0-1.7-0.1-2.5-0.2c-0.4-0.1-0.7-0.3-0.8-0.6c0-0.4,0.2-0.7,0.5-0.9c0.6-0.2,1.3-0.4,2-0.5c0.6,0,1.2-0.1,1.8,0
			c-0.2-0.5-0.4-1.1-0.7-1.6c-0.9-1.6-0.7-2.2,1.1-2.8c0.6-0.2,1.1-0.4,1.7-0.6l0-0.4c-1-0.3-1.9-0.5-3-0.6c-1.8,0-3.6,0.2-5.4,0.5
			c-1.5,0.4-3,0.3-4.5-0.2c-0.4-0.2-0.6-0.5-0.7-0.9c0-0.2,0.4-0.6,0.7-0.8c0.4-0.3,0.8-0.5,1.2-0.7c-4.6-1-8.9-1-13.3-1.7l13.2-4.7
			l-0.1-0.3c-1.8,0.1-3.5,0.2-5-1c-0.2-0.2-0.5-0.2-0.8-0.2c-1.2,0-2.3,0.1-3.5,0.2l-1.6,0.1l-0.1-0.4c0.4-0.4,0.9-0.8,1.4-1.1
			c2.1-1,4.2-1.9,6.3-2.9c0.7-0.3,1.3-0.7,1.9-1l-0.1-0.4c-3.7-0.5-7.5,0.1-11.2,0l10.7-4.1c-0.6-0.1-1.2-0.1-1.9-0.1
			c-4.3,0.3-8.7,0.6-13,0.8c-2.1,0-4.2-0.1-6.3-0.4c-0.3-0.1-0.6-0.3-0.8-0.6c0.1-0.4,0.3-0.7,0.6-0.8c0.7-0.2,1.5-0.4,2.2-0.5
			c1-0.1,2.1,0,3.1-0.2c5.1-0.7,10.2-1.6,15.3-2.3c3.6-0.5,7.3-0.8,10.9-1.2c0.6-0.2,1.3-0.4,1.9-0.7l-0.3-0.2
			c-8.9-0.6-17.8,0.1-26.7,0.4c-3.1,0.1-6.1,0.3-9.2,0.4c-4.4,0.2-8.8,0.2-13.2,0.4c-8.9,0.3-17.7,0.4-26.6,0.8
			c-5.7,0.2-11.3,0.8-16.9,1.1c-2.9,0.2-5.9,0.2-8.8,0.4c-4.7,0.4-9.4,0.7-14,1.3c-7.4,1-14.7,2-22,3.2c-11.2,1.8-22.3,4.2-33.4,7
			c-7.6,1.9-15.1,4-22.6,6c-9.3,2.5-18.7,5-27.9,7.7c-9.1,2.7-18.3,5.4-27.3,8.4c-8.6,2.8-17.1,6-25.7,9.1c-3.1,1.1-6,2.7-9.1,4.1
			c-3.7,1.7-7.3,3.4-11,5.1c-1.4,0.7-2.8,1.5-4.2,2.3l-0.9,1.2c0.3,0.6,0.6,1.2,1,1.8c0.8,0.9,1,1.3,0.2,2.2
			c-0.6,0.6-1.3,1.2-2.1,1.7c-1.3,0.9-1.7,1.8-1.1,2.9c0.7,1,0.5,2.3-0.4,3c-0.6,0.6-1.2,1.1-1.8,1.5C1.8,73,0.9,73.6,0,74.2
			c0.4,0.1,0.7,0,1.1,0c1.5-0.3,2.9-0.6,4.4-0.9C6.7,73,7,73.5,6.6,74.6c-0.3,0.8-0.7,1.6-1,2.5c-0.3,1,0.1,1.4,1.1,1.4
			c1.3,0,2.7-0.1,4-0.1c0.5,0,0.9,0.1,1.4,0.2l0.1,0.3c-0.3,0.3-0.7,0.5-1,0.8c-1.5,0.8-3,1.7-4.5,2.5c-0.6,0.3-0.9,0.6-0.5,1.4
			c0.5,0.7,0.3,1.7-0.4,2.2c0,0-0.1,0-0.1,0.1c-0.8,0.6-1.6,1-2.5,1.5c-1.9,1.2-2,2.7-0.3,4.1c0.4,0.3,0.9,0.6,1.3,0.8
			c0.7,0.3,1.4,0.5,2,0.8c1.2,0.5,1.5,1.1,1.3,2.5s0,1.7,1.3,2.2c0.8,0.2,1.6,0.4,2.4,0.4c0.4,0,0.9,0.1,1.3,0.2
			c0.6,0.2,0.8,0.6,0.4,1.2c-0.6,0.8-1.3,1.6-1.9,2.5c-1.1,1.4-1,1.8,0.7,2.4c0.8,0.3,1.8,0.6,2,1.6c0.2,1.1-0.7,1.7-1.4,2.3
			c-0.5,0.4-1,0.8-1.5,1.2c-0.2,0.2-0.4,0.4-0.8,0.7c0.8,0,1.3-0.1,1.8-0.1c0.9-0.1,1.9-0.2,2.8-0.3c0.7,0,1.3,0.3,1.2,1.2
			c-0.1,0.9,0.5,1.4,1.2,1.8c1.4,0.8,1.4,1.2,0.1,2.1c-0.5,0.3-0.9,0.6-1.4,0.9c-0.8,0.5-1.6,0.9-2.6,1.4c0.2,0.1,0.5,0.1,0.7,0.2
			c2,0.4,4.1,0.4,6.2,0c0.9-0.1,1.8-0.1,2.7,0.2c0.8,0.2,1.5,0.7,2.3,1c7.3,2.4,14.9,3.8,22.5,4.2c0.4,0,0.9,0,1.3-0.1
			c2-0.5,4.1-1.1,6.1-1.6c7.8-2.1,15.6-4.2,23.4-6.3c6.3-1.7,12.6-3.3,19-4.8c7.7-1.9,15.4-3.9,23.1-5.8c7.2-1.7,14.4-3.2,21.6-4.7
			c11-2.3,22-4.6,33.1-6.5c13-2.3,26-4.2,39.1-6.2c4-0.6,8-1.1,12-1.6c5.4-0.7,10.8-1.2,16.3-1.9c5.1-0.6,10.2-1.5,15.3-2.1
			c6.7-0.7,13.3-1.2,20-1.7c0.9-0.1,1.9-0.3,2.8-0.5c1.8-0.1,3.6-0.2,5.3-0.5c8.5-1.4,17-2.9,25.5-4.4c1.6-0.4,3.2-0.9,4.7-1.5
			c0.2-0.1,0.4-0.4,0.6-0.6C316.4,71.6,316.2,71.2,315.9,71.2z M266.1,7c-0.6,0.3-1.2,0.4-1.8,0.4c-2-0.1-3.9-0.3-5.8-0.5
			c-0.3-0.1-0.6-0.2-0.8-0.3l0-0.3c0.5-0.2,1-0.4,1.6-0.6c2.2-0.7,4.5-0.8,6.7-0.4c0.4,0.1,0.7,0.4,1,0.7
			C266.7,6.3,266.5,6.8,266.1,7z M290.7,34.4c-7.1,0.1-14.2,0.2-21.3,0.2c-2.3,0-4.7-0.3-7-0.6c-1.3-0.2-2.5-0.9-3.4-1.9
			c5.6,1.5,11,0.3,16.4-0.1c5.1-0.3,10.3-0.6,15.3,0.6c1.3,0.3,2.5,0.9,3.8,1.3l-0.1,0.4C293.2,34.3,292,34.4,290.7,34.4L290.7,34.4
			z"/>
	</g>
</g>
</svg>
