<svg id="Layer_1" data-name="Layer 1" xmlns="http://www.w3.org/2000/svg" viewBox="0 0 105.16 161.73"><defs><style>.cls-1{fill:#fff;}</style></defs><g id="support2"><path class="cls-1" d="M39.16,91.08c1.44,1.37,2.66,3.19,4.36,4,6,3,12.23,5.77,18.39,8.56,3.91,1.77,6.39,4.65,6.63,9q1.13,19.47,2,39a9.1,9.1,0,0,1-5.89,9.29c-3.85,1.56-8.35,1-10.71-2.36A17.27,17.27,0,0,1,51,150.38c-.76-8.63-1.16-17.31-1.42-26-.1-3.69-1.46-5.71-5-7.16-7.49-3.08-14.74-6.75-22.15-10-6.38-2.84-9.81-7.37-9.19-14.61,1.41-16.46,2.61-32.95,4.2-49.39.64-6.57,7.12-11.16,14.08-10.76A12.91,12.91,0,0,1,43.74,44.91a80.82,80.82,0,0,1-1.67,15.72c-.63-4.08-1.24-8.15-1.9-12.22-.87-5.4-4.9-8.54-10-7.81-4.57.66-7.79,5.15-7,10.21,1.57,10.71,3.31,21.39,4.92,32.09.59,3.94,2.84,6,6.72,6.37l4.81.5Z"/><path class="cls-1" d="M86.52,124l-15,3.69c-.37-5.23-.77-10.18-1-15.13s-2.78-8.07-6.88-10.23c-3.58-1.89-7.16-3.83-10.88-5.42-2.82-1.21-3.33-2.78-1.59-5.48,2.53.31,5.21.57,7.85,1C68,93.81,71.06,91.78,73,83c11.41-2.23,19.32,5.5,20.82,19.51,3.47,1.38,7.54,1.8,9.29,4s2.29,6.53,2,9.77c-1.26,12.23-3.06,24.4-4.72,36.59a8.81,8.81,0,0,1-9.23,7.88,8.41,8.41,0,0,1-7.91-9.47c.73-7.93,1.9-15.83,2.88-23.74C86.21,126.56,86.33,125.52,86.52,124Z"/><path class="cls-1" d="M55.12,76.57c1.77,7.56,3.91,8.49,14.72,6.7.93,4.74-2.11,8.22-6.94,7.61-9.26-1.15-18.48-2.54-27.72-3.72-2.81-.36-4.47-1.66-4.91-4.48-1.72-10.94-3.54-21.86-5.13-32.82-.54-3.7,1.91-6.61,5.53-7.28C34.08,41.94,37.24,44,38,48c1.44,7.83,2.75,15.71,3.67,23.61.34,2.86,1.57,3.64,4,3.87C48.73,75.74,51.81,76.17,55.12,76.57Z"/><path class="cls-1" d="M42.5,32.55A16,16,0,0,1,26.29,16.42,16.14,16.14,0,0,1,42.31,0,16.47,16.47,0,0,1,58.85,16.45,16.23,16.23,0,0,1,42.5,32.55Z"/><path class="cls-1" d="M71.37,69.87c9.25-.75,17.69-.37,25.67,3.27,4.19,1.91,5.66,4.6,4.2,7.8S97,85,92.74,83.22C84.16,79.56,75.43,80,66.5,81.68c-2.38.45-5.52.22-7.43-1-2.77-1.83-1.58-5-.55-7.74,2-5.3,3.76-10.67,5.72-16,1.52-4.09,4.1-5.56,7.3-4.35s4.34,3.88,3,8C73.55,63.47,72.55,66.38,71.37,69.87Z"/><path class="cls-1" d="M29.16,113H11.56c-2,14.69-3.9,29.12-5.87,43.76H0C1.9,142.25,3.78,128,5.7,113.3l-5.19-.44c-1-5.28-.86-5.34,4.16-5.48C13.1,107.16,21.51,106.88,29.16,113Z"/><path class="cls-1" d="M75.1,51.6a8.82,8.82,0,0,1-1.41-.29c-5.3-2.27-9.25-.67-11.27,4.74-1.81,4.8-3.33,9.71-5.22,14.47-.59,1.47-2,3.69-3,3.71-3,0-1.73-2.73-1.78-4.34a127,127,0,0,1,.08-13.38c.44-5.82,3.19-9.22,7.64-10.27C67.26,44.55,71.27,45.9,75.1,51.6Z"/><path class="cls-1" d="M43,156.87H37.3c-1.89-14.25-3.78-28.4-5.72-42.95,3.94.94,6.37,2.25,6.83,6.66C39.65,132.55,41.4,144.46,43,156.87Z"/><path class="cls-1" d="M84.16,67.54H74.72c1-4.39,2-8.54,3-12.81l7.47,10.89A1.23,1.23,0,0,1,84.16,67.54Z"/><path class="cls-1" d="M75.43,15.09c-1.59-4.37-4-7.19-8.14-6.3A10.35,10.35,0,0,0,61,13.53c-2.18,4.31.78,7.41,4.06,9.82a15.87,15.87,0,1,0,10.42-8.26Z"/></g></svg>