<svg id="Layer_1" data-name="Layer 1" xmlns="http://www.w3.org/2000/svg" viewBox="0 0 72.51 160.4"><defs><style>.cls-1{fill:#fff;}</style></defs><g id="support3"><path class="cls-1" d="M24.74,52c-.47-3.13-.95-6.27-1.42-9.4-.77-5.11-4.27-8.13-8.63-7.44s-6.71,4.12-6,9.24C10,53.67,11.48,63,12.87,72.23a5.27,5.27,0,0,0,5,4.89l5.08.63a4.45,4.45,0,0,1,.21,1.43c-2.9,11.67.74,23.21.53,34.77-.16,9.14-2.43,18.24-3.89,27.34-.57,3.57-1.36,7.11-2.22,10.63-1.14,4.68-5.65,7.63-10,6.66-4.93-1.11-7.58-5.53-6.5-10.71,1.94-9.31,3.91-18.62,5.72-28a21.06,21.06,0,0,0,.05-5.61c-.42-5.35-1-10.7-1.44-16-.32-3.57-.63-6.9-3.32-10C.56,86.44-.14,83.07,0,80.46Q1.33,59.55,3.35,38.7C4,31.54,9.55,27.35,16.46,28.1c6.14.67,10.41,6.26,9.9,13-.28,3.61-.6,7.21-.9,10.82Z"/><path class="cls-1" d="M32.55,78.78c4.22,6.08,4.77,6.27,12,4.72A28.45,28.45,0,0,1,48.08,83c9.11-.81,12.59,1.17,16.38,9.3,3.41,7.3,2.39,14-3,19.53.17.2.31.53.52.58,9.15,2.34,9.4,7.93,6.51,14.58-4,9.1-7.31,18.45-11,27.66-2,5-5.9,6.89-10.08,5.16s-5.83-5.73-3.92-10.71c3-7.75,6-15.47,9.31-23.79-3.85-1.25-7.39-2.75-11.09-3.55-9.91-2.13-13.77-6.84-12.73-17C29.87,96.25,31.29,87.8,32.55,78.78Z"/><path class="cls-1" d="M25.32,28.2A13.93,13.93,0,0,1,11.2,14.29,13.94,13.94,0,0,1,25.34,0,14.31,14.31,0,0,1,39.4,14.11,14.25,14.25,0,0,1,25.32,28.2Z"/><path class="cls-1" d="M36.94,66.42c-1.26,3.63-2.43,7-3.75,10.86-4.95-.66-10-1.06-14.9-2.16a6.13,6.13,0,0,1-3.69-4C13,62.4,11.67,53.64,10.44,44.87c-.69-4.84,1-7.57,4.53-8,3.8-.48,6.08,1.83,6.76,6.69.83,5.85,1.81,11.67,2.59,17.52.37,2.75,1.32,4.31,4.5,4.26C31.43,65.29,34.06,66,36.94,66.42Z"/><path class="cls-1" d="M47.52,70.7c7.14,1.18,13.83,2.21,20.48,3.44,1.24.23,2.92,1,3.36,1.94.78,1.73,1.6,4.25.87,5.62s-3.82,2.59-5.09,2c-8.73-3.71-17.44-3.4-26.38-1.2a4.32,4.32,0,0,1-5.42-5.39C37.07,71,39.28,65,41.61,59c.84-2.15,2.85-3.08,5.34-2.09s3.59,2.81,3,5.39C49.2,65.28,48.25,68.18,47.52,70.7Z"/><path class="cls-1" d="M60,69.92,50.24,69c1.52-5.22,5.1-11.18-2.68-14.2C43.7,53.33,41,56.12,37.5,64.5l-4.41-.31c-1.3-4.19.38-9.42,3.55-11.49,3.66-2.38,10.6-2.34,13.15.7C53.59,57.93,57,62.76,61,68.14A1.12,1.12,0,0,1,60,69.92Z"/><path class="cls-1" d="M49.21,24.16c-1.77-3.71-4.14-6-7.69-4.84A9.13,9.13,0,0,0,36.36,24c-1.55,4,1.32,6.43,4.41,8.27a14,14,0,1,0,8.44-8.14Z"/></g></svg>