<svg xmlns="http://www.w3.org/2000/svg" viewBox="0 0 99.46 160.48"><defs><style>.cls-1{fill:#da291c;}</style></defs><g id="Layer_1" data-name="Layer 1"><g id="toilet2"><path class="cls-1" d="M0,156.41V78.06H21.72v39.21H66.81c2.15,12.23-6.3,22.81-18.16,22.87-3.14,0-4.58,1.07-5.49,3.87-1,3.07-2.56,6-3.51,9-.81,2.65-2.17,3.47-4.94,3.43C23.26,156.31,11.8,156.41,0,156.41Z"/><path class="cls-1" d="M34.16,77.71,56.8,93.13c1.34.91,2.62,1.93,4,2.73a7.38,7.38,0,0,0,10-2.06,7.17,7.17,0,0,0-1.79-10.06q-10-7.26-20.32-14c-2.12-1.4-2.78-2.63-2-5.21,1.55-5.29,2.63-10.72,3.91-16.09s.52-8.4-2.78-10.47C44.8,36,41.49,36.69,37.49,40.05c3-6.25,14.57-7.87,18.88-2.44,3.85,4.86,7.52,9.91,10.87,15.13,5,7.85,4,12-1.51,16.35a11.26,11.26,0,0,0-1.54,2c7.77,7.53,12.67,16,9.26,27.23a16,16,0,0,0,1.91.44c10.1.8,11,1.48,13.52,11Q94,129.32,99.06,148.9c1.42,5.49-1,10-6.15,11.31-4.51,1.18-9-1.58-10.37-6.65-3.2-11.7-6.34-23.41-9.32-35.17-.52-2-1-2.88-3.35-2.85-7,.08-14-.44-20.94-.32-11.31.21-18.28-6.52-17.42-17.67C32,91.24,33.16,85,34.16,77.71Z"/><path class="cls-1" d="M43.73,68.58l22.15,15.2c4.29,2.94,5.41,6,3.29,9s-5.29,2.89-9.29.16c-8-5.49-16-11-24.08-16.43-2.77-1.86-4.19-4.17-3.37-7.53,2.06-8.52,4-17.06,6.26-25.53C40,38.59,45,37,47.82,40.57a8.11,8.11,0,0,1,1.09,6C47.45,53.77,45.56,60.94,43.73,68.58Z"/><path class="cls-1" d="M40,4.23C37,.6,33.7-1.27,30.06,1a10.45,10.45,0,0,0-4.44,6.65c-.63,4.85,3.23,6.8,7.18,8A16,16,0,1,0,40,4.23Z"/></g></g></svg>