<svg id="Layer_1" data-name="Layer 1" xmlns="http://www.w3.org/2000/svg" viewBox="0 0 110.36 161.67"><defs><style>.cls-1{fill:#fff;}</style></defs><g id="medball"><path class="cls-1" d="M57.38,69.87l1.94,5.34L46.56,70.39c1.3-6.35,2.52-12.47,3.8-18.57,1-4.69.17-8.78-5-10-5.48-1.25-8,2.2-9.08,7.18-1.55,7.41-3.19,14.79-4.8,22.18-1.22,5.57.54,9.3,6.21,11.25,6.5,2.24,12.85,4.92,20.39,7.85l-6.49,1.57.06,1.62c6.75,0,13.53.41,20.24-.1,7.76-.6,12.54,2.4,16.09,9.3C94.35,115,101.44,127,108.14,139.13c3.73,6.74,2.7,12.39-2.6,15.28s-10.46.92-14.36-6C85.29,138,79.39,127.54,73.74,117c-1.72-3.21-3.81-4.37-7.43-4.28-9.47.23-19,.13-28.42.06-16.55-.11-25.57-15.47-17.83-30.35,1.17-2.23,2.56-4.35,3.89-6.49a42.26,42.26,0,0,0,6.72-25.15c-.51-9.39,2.1-13.75,9-16.08,6-2,11.71.28,16.59,7.25a67.32,67.32,0,0,1,6.42,11.53C66.59,62.44,66.05,63.83,57.38,69.87Z"/><path class="cls-1" d="M19.69,107.51c4.22,6.14,10.08,7.75,16.75,7.62,4.84-.1,9.74.41,14.52-.13,5.36-.61,8.28,1.86,10.39,6.19,4.29,8.76,4.41,17.39-.9,25.81-12,19.06-42.86,19.67-55.65,1.1C-5.37,133.34,1.09,115.22,19.69,107.51Z"/><path class="cls-1" d="M63,15.31A15.11,15.11,0,0,1,47.44,30.72,15,15,0,0,1,32.35,15.51,15.32,15.32,0,1,1,63,15.31Z"/><path class="cls-1" d="M44.47,71.47C51.54,74.18,57.78,76.6,64.05,79c3.47,1.31,6.32,3.34,4.94,7.41-1.54,4.53-5.27,4-8.92,2.68-7.26-2.74-14.49-5.56-21.77-8.25-4.41-1.63-6.29-4.23-5-9.19,1.85-7.31,3.1-14.77,4.71-22.15.77-3.5,2.3-6.8,6.6-6,4.62.88,4.91,4.54,4.09,8.41C47.31,58.21,46,64.55,44.47,71.47Z"/><path class="cls-1" d="M31.33,9.44c-.59,8.35-.16,15.76-1.82,22.68C27.13,42.07,17.25,48,9.19,45.57A28.89,28.89,0,0,1,5,43.29C15.75,41.94,16.62,33.87,18.4,26.7S22.51,13.1,31.33,9.44Z"/></g></svg>