<svg xmlns="http://www.w3.org/2000/svg" width="26.566" height="21.548" viewBox="0 0 26.566 21.548">
  <path id="Path_39" data-name="Path 39" d="M46.412,23.548a15.359,15.359,0,0,0,15.5-15.5V7.313a12,12,0,0,0,2.657-2.8,12.252,12.252,0,0,1-3.1.886,5.742,5.742,0,0,0,2.361-2.952,13.537,13.537,0,0,1-3.395,1.328A5.271,5.271,0,0,0,56.448,2a5.545,5.545,0,0,0-5.461,5.461,2.877,2.877,0,0,0,.148,1.181A15.259,15.259,0,0,1,39.919,2.886a5.652,5.652,0,0,0-.738,2.8,5.864,5.864,0,0,0,2.361,4.575,4.975,4.975,0,0,1-2.509-.738h0a5.394,5.394,0,0,0,4.428,5.313,4.55,4.55,0,0,1-1.476.148,2.512,2.512,0,0,1-1.033-.148,5.591,5.591,0,0,0,5.166,3.837,11.143,11.143,0,0,1-6.789,2.361A4.086,4.086,0,0,1,38,20.891a13.931,13.931,0,0,0,8.412,2.657" transform="translate(-38 -2)" fill="#fff" fill-rule="evenodd"/>
</svg>
