<svg xmlns="http://www.w3.org/2000/svg" viewBox="0 0 50.59 170.35"><defs><style>.cls-1{fill:#da291c;}</style></defs><g id="Layer_1" data-name="Layer 1"><g id="walk"><path class="cls-1" d="M37.61,68.91c3.23,5,6.18,9.47,9.12,14l-1.12.95c-3.53-3.24-6.88-6.7-10.64-9.65-4.67-3.67-3.2-9-4.23-13.66-1.22-5.48-1.59-11.14-2.57-16.67A7.38,7.38,0,0,0,20,37.48a7.27,7.27,0,0,0-6.75,7.88q1.84,16.16,4.5,32.21C18,79.34,19.87,81,21.33,82.4c6.07,5.76,12.25,11.4,17.56,16.31-.14,2.51-.58,4.11-.26,5.53a81.49,81.49,0,0,0,3.1,10.67,42.89,42.89,0,0,1,2,23c-1.38,8.12-2.17,16.34-3.21,24.51-.65,5.11-4.33,8.42-8.72,7.84-4.6-.61-7.48-4.46-6.91-9.55,1-8.73,1.83-17.5,3.33-26.15a29,29,0,0,0-1.58-14.89,47.81,47.81,0,0,0-2.92-7.78c0,1-.07,1.91,0,2.86,1.24,14.58-4,28.14-6.64,42.1-.42,2.15-.93,4.29-1.44,6.42-1.18,5-5.22,7.88-9.59,6.83C1.55,169-.85,165,.27,159.91c1.94-8.84,4.72-17.56,5.89-26.5C7.49,123.26,7.42,112.92,8,102.67c.45-8,1-16.08,1.46-24.11.52-8.22,1.09-16.42,1.61-24.64.16-2.6.18-5.21.35-7.81.28-4.49,2.15-8,6.71-9.32,5.95-1.66,10.42,0,13.68,4.6,2.7,3.82,5.59,7.5,8.12,11.42,4.3,6.67,4,9.06-1.29,14.81C38.18,68.12,37.79,68.69,37.61,68.91Z"/><path class="cls-1" d="M14.9,46.28c-.06-4.09,2-6.72,5.28-7.06s5.74,1.73,6.34,5.57c1.17,7.58,2.3,15.17,3.22,22.78a11.2,11.2,0,0,0,3.89,7.78c5,4.29,9.76,8.85,14.55,13.38,2.94,2.79,3.17,6.12.81,8.69s-5.66,2.81-8.71.07C33.84,91.71,27.51,85.82,21.21,79.9a6,6,0,0,1-1.94-3.07C17.7,66.53,16.3,56.21,14.9,46.28Z"/><path class="cls-1" d="M19.08,5.88C17.35,1.77,14.9-.82,11,.23A10,10,0,0,0,5.14,5.07c-1.89,4.24,1.09,7.06,4.35,9.21a15.22,15.22,0,1,0,9.59-8.4Z"/></g></g></svg>