<svg xmlns="http://www.w3.org/2000/svg" viewBox="0 0 67.52 145.05"><defs><style>.cls-1{fill:#da291c;}</style></defs><g id="Layer_1" data-name="Layer 1"><g id="wall"><path class="cls-1" d="M22.9,40.59c-1.45,0-2.9-.1-4.33,0A5.45,5.45,0,1,0,19,51.49c3.29-.07,6.56-.51,9.84-.59,1.79,0,3.94-.94,4.91,1.77s1.54,5.15-.55,7.51c-1,1.08-2,2.11-2.4,2.55,2.36,4.63,5,8.7,6.52,13.15,1.72,5.06-.45,9.81-5.09,12.4-1.87,1-2,2.14-1.52,3.79.66,2.46,1.14,5,2,7.38,4.51,12.57,3.68,25.63,3.63,38.61,0,4.21-2.64,6.91-6.38,7s-6.28-2.62-6.38-7c-.14-6.45.16-12.91-.11-19.34a60.21,60.21,0,0,0-1.92-11.24c1.71,10.87-4.3,19.68-7.61,29.16a39,39,0,0,1-1.91,4.73,6.12,6.12,0,0,1-8,3.15,6,6,0,0,1-3.67-8C2.5,131,4.55,125.4,7,120c1.71-3.75,1.62-7.47,1.43-11.39C7.92,97.3,7.27,86,7.32,74.69c0-7,1.33-14,1.89-21,.24-3-.14-6.09.12-9.1a9.07,9.07,0,0,1,11.29-7.92c1.11.32,1.83,2,2.73,3Z"/><path class="cls-1" d="M67.52,144.27H60V47.18c-4.8.45-9.23,1-13.68,1.26C37.73,49,29.1,49.51,20.48,50c-3.71.22-6-1.19-5.87-3.83.15-3.2,2.29-4,5.25-4.2,11.42-.6,22.83-1.42,34.25-2a31.64,31.64,0,0,1,5.38.58c-.51-2.14-.84-2.31-6.39-2.06-2.67.11-5.33.39-8,.59,1.25-5.62,6.9-7.71,14.7-5.28V0h7.74Z"/><path class="cls-1" d="M21.89,26.76c-3-1.3-4.77-3.89-3.57-7.13a7.46,7.46,0,0,1,4.76-4.19,5.26,5.26,0,0,1,6.19,3.74c3.25.42,6.38.28,9.1,1.27,6.55,2.41,9.11,11.36,5.11,17.13a4.5,4.5,0,0,1-2.92,1.53c-3.62.4-7.27.6-10.91.78-4.82.24-7.4-2-7.74-6.81C21.78,31.16,21.89,29.23,21.89,26.76Z"/></g></g></svg>