<svg xmlns="http://www.w3.org/2000/svg" viewBox="0 0 134.51 161.68"><defs><style>.cls-1{fill:#da291c;}</style></defs><g id="Layer_1" data-name="Layer 1"><g id="yoga"><path class="cls-1" d="M93.79,81.61c-3.2,5.77-9.47,8.51-17.74,6.67l.09,1.93c3.49.15,7.26,1.21,10.38.22,3.63-1.15,5.28-.54,7.06,2.54,6.77,11.74,4,26.92-6.72,36.05a30.26,30.26,0,0,1-38.93,0C37.3,120,34.57,104.65,41.47,93c1.52-2.56,2.83-3.89,6.47-2.72,3.36,1.08,7.35.23,10.87-.65L43.39,85.8C57.45,75.5,60.43,62.66,58,47.85c12.78-4.57,34.57.39,42.66,10.51,3.1,3.87,4.7,9.23,6,14.18,1.7,6.47,2.49,13.19,3.57,19.82,1.36,8.4,6.68,13.19,14.26,16,2.17.81,5,1.12,6.28,2.69,1.84,2.32,3.81,5.85,3.26,8.32-.44,2-4.56,4.49-7,4.45-12-.17-25.45-11.92-28.21-23.73-.42-1.83-1.33-3.55-1.81-5.37C95.81,90.12,94.73,85.47,93.79,81.61Z"/><path class="cls-1" d="M103.62,136.6H86.08l15.64-15.28c4.85,1.88,14.16,5.08,23.12,9.08,6.08,2.72,10.29,7.58,9.59,14.89s-5.83,11.78-12.37,12.51c-16.69,1.85-33.48,3-50.26,3.67-5.85.24-9.82-5.31-9.72-11.16a10.66,10.66,0,0,1,10.19-10.87c6.5-.55,13.06-.26,19.58-.46,3.91-.12,7.82-.46,11.72-.71C103.59,137.71,103.61,137.16,103.62,136.6Z"/><path class="cls-1" d="M34.61,120.71l14.21,15.42H31.36c-.05.69-.09,1.38-.13,2.06H64.62c-5.46,8.52-6.93,15.5-.71,22.59-1.11.42-1.79.94-2.45.9-14.27-.75-28.53-1.52-42.79-2.4a25.62,25.62,0,0,1-6.13-1.37c-6.15-2-11.2-5.25-12-12.26-.86-7.27,3.14-12.29,9.23-15.06C18.68,126.53,28,123.3,34.61,120.71Z"/><path class="cls-1" d="M67.27,42.83A21.68,21.68,0,0,1,46,21.37a21.43,21.43,0,1,1,42.85.37A21.69,21.69,0,0,1,67.27,42.83Z"/><path class="cls-1" d="M27.4,83.52l13,2c-.78,19-11.77,33.18-29.82,38-4.23,1.13-8.2.89-10-3.8-1.47-3.82-.1-7,3.62-9,5.67-3.06,12.72-5,16.59-9.57S25.4,89.32,27.4,83.52Z"/><path class="cls-1" d="M29.81,81c8.92-4.06,11.4-8.8,10.73-19.51-.3-4.83-1.27-9.73-.71-14.45.62-5.19,2.67-10.2,4.34-16.2C57.53,45.4,59.86,61.21,51.49,73.58,46,81.7,38.67,84.4,29.81,81Z"/><path class="cls-1" d="M36.81,55.82c3.55,13,.71,20.16-8.63,22C27.24,69.17,29.66,62,36.81,55.82Z"/></g></g></svg>